<svg width="325" height="325" viewBox="0 0 325 325" fill="none" xmlns="http://www.w3.org/2000/svg">
<rect x="0.246094" y="0.869141" width="324" height="324" fill="#D8E0F3"/>
<path d="M131.74 173.869L132.316 169.765H134.314V168.703H132.478L132.838 166.183H134.782V165.121H132.982L133.54 161.305H132.478L131.92 165.121H129.472L130.048 161.305H128.968L128.392 165.121H126.232V166.183H128.248L127.87 168.703H125.728V169.765H127.708L127.096 173.869H128.158L128.77 169.765H131.236L130.678 173.869H131.74ZM131.416 168.703H128.932L129.328 166.183H131.776L131.416 168.703ZM141.13 160.909H136.702V173.869H141.13C141.562 173.869 141.994 173.851 142.408 173.797C142.822 173.761 143.236 173.689 143.632 173.563C144.01 173.455 144.388 173.293 144.748 173.095C145.09 172.897 145.414 172.627 145.72 172.285C146.026 171.961 146.278 171.601 146.476 171.205C146.674 170.827 146.818 170.413 146.944 169.981C147.07 169.567 147.16 169.135 147.214 168.685C147.268 168.235 147.286 167.803 147.286 167.371C147.286 166.939 147.25 166.471 147.196 165.949C147.124 165.445 147.016 164.941 146.854 164.437C146.692 163.951 146.458 163.465 146.188 163.015C145.918 162.565 145.558 162.187 145.126 161.881C144.82 161.665 144.514 161.485 144.208 161.359C143.884 161.233 143.56 161.125 143.218 161.053C142.876 160.999 142.534 160.945 142.192 160.927C141.85 160.909 141.49 160.909 141.13 160.909ZM140.86 172.825H137.926V161.953H140.86C141.4 161.953 141.94 161.989 142.462 162.043C142.984 162.097 143.452 162.241 143.83 162.439C144.28 162.673 144.658 162.979 144.946 163.339C145.234 163.717 145.468 164.113 145.63 164.545C145.792 164.995 145.918 165.445 145.972 165.931C146.026 166.417 146.062 166.903 146.062 167.371C146.062 167.821 146.026 168.271 145.972 168.757C145.9 169.243 145.792 169.693 145.63 170.125C145.468 170.575 145.234 170.971 144.964 171.349C144.694 171.727 144.334 172.015 143.902 172.231C143.398 172.501 142.912 172.663 142.426 172.717C141.94 172.789 141.418 172.825 140.86 172.825ZM151.24 167.047C150.52 167.317 149.98 167.749 149.602 168.343C149.224 168.937 149.026 169.621 149.026 170.377C149.026 171.007 149.152 171.547 149.386 172.015C149.62 172.483 149.944 172.879 150.322 173.185C150.7 173.491 151.114 173.725 151.6 173.887C152.068 174.049 152.536 174.121 152.986 174.121C153.652 174.121 154.264 174.031 154.822 173.869C155.38 173.707 155.848 173.455 156.244 173.131C156.622 172.807 156.928 172.411 157.144 171.925C157.342 171.439 157.45 170.899 157.45 170.269C157.45 169.531 157.252 168.883 156.856 168.325C156.442 167.767 155.902 167.371 155.2 167.119C155.812 166.813 156.262 166.435 156.532 165.967C156.802 165.499 156.928 164.941 156.928 164.275C156.928 163.735 156.82 163.267 156.604 162.871C156.388 162.493 156.1 162.169 155.74 161.917C155.38 161.665 154.966 161.485 154.516 161.359C154.048 161.233 153.58 161.179 153.094 161.179C152.59 161.161 152.122 161.233 151.69 161.395C151.24 161.557 150.862 161.773 150.538 162.043C150.214 162.331 149.962 162.673 149.764 163.051C149.566 163.429 149.476 163.843 149.476 164.275C149.476 164.653 149.512 164.977 149.584 165.229C149.638 165.499 149.746 165.733 149.89 165.931C150.034 166.129 150.214 166.327 150.448 166.489C150.664 166.669 150.934 166.849 151.24 167.047ZM153.202 162.151C154.084 162.151 154.732 162.331 155.146 162.673C155.56 163.033 155.776 163.537 155.776 164.185C155.776 164.635 155.722 165.031 155.596 165.337C155.47 165.643 155.29 165.913 155.074 166.111C154.858 166.309 154.606 166.453 154.3 166.543C153.994 166.633 153.67 166.687 153.328 166.687C152.986 166.687 152.644 166.633 152.32 166.543C151.996 166.453 151.708 166.327 151.456 166.147C151.204 165.967 151.006 165.733 150.862 165.445C150.7 165.175 150.628 164.833 150.628 164.437C150.628 164.059 150.7 163.735 150.826 163.447C150.952 163.159 151.15 162.925 151.384 162.727C151.618 162.529 151.888 162.385 152.194 162.295C152.5 162.205 152.842 162.151 153.202 162.151ZM153.256 167.659C153.67 167.659 154.066 167.713 154.444 167.821C154.822 167.929 155.146 168.091 155.416 168.307C155.686 168.541 155.902 168.811 156.064 169.135C156.226 169.477 156.298 169.855 156.298 170.305C156.298 170.719 156.226 171.115 156.082 171.457C155.92 171.799 155.722 172.105 155.452 172.357C155.182 172.609 154.858 172.807 154.498 172.933C154.138 173.077 153.742 173.149 153.328 173.149C152.842 173.149 152.41 173.077 152.032 172.933C151.636 172.789 151.312 172.591 151.042 172.339C150.772 172.105 150.556 171.817 150.412 171.475C150.25 171.133 150.178 170.773 150.178 170.377C150.178 169.909 150.25 169.495 150.412 169.153C150.574 168.811 150.79 168.541 151.06 168.307C151.33 168.091 151.654 167.929 152.032 167.821C152.41 167.713 152.806 167.659 153.256 167.659ZM168.316 160.909H159.694V173.869H168.496V172.825H160.918V167.677H167.596V166.633H160.918V161.953H168.316V160.909ZM174.244 161.179C173.326 161.179 172.588 161.359 172.03 161.737C171.472 162.115 171.04 162.601 170.734 163.195C170.428 163.807 170.212 164.491 170.104 165.265C169.996 166.039 169.942 166.813 169.942 167.623C169.942 168.505 169.996 169.333 170.122 170.107C170.248 170.899 170.464 171.583 170.788 172.177C171.094 172.771 171.544 173.257 172.102 173.599C172.66 173.941 173.362 174.121 174.244 174.121C175.126 174.121 175.828 173.941 176.386 173.599C176.944 173.257 177.376 172.789 177.7 172.195C178.006 171.601 178.222 170.935 178.348 170.161C178.474 169.387 178.528 168.595 178.528 167.749C178.528 167.263 178.51 166.759 178.474 166.237C178.438 165.715 178.366 165.211 178.258 164.725C178.15 164.239 178.006 163.789 177.808 163.357C177.61 162.925 177.34 162.547 177.034 162.223C176.71 161.899 176.314 161.647 175.864 161.449C175.414 161.269 174.874 161.179 174.244 161.179ZM177.376 167.623C177.376 168.253 177.34 168.901 177.268 169.567C177.196 170.233 177.052 170.827 176.836 171.349C176.62 171.871 176.314 172.303 175.9 172.645C175.486 172.987 174.928 173.149 174.244 173.149C173.632 173.149 173.128 173.023 172.732 172.753C172.318 172.501 171.994 172.141 171.76 171.673C171.526 171.205 171.346 170.629 171.256 169.963C171.148 169.297 171.094 168.559 171.094 167.749C171.094 167.047 171.148 166.363 171.238 165.697C171.328 165.031 171.472 164.419 171.706 163.897C171.94 163.375 172.246 162.943 172.66 162.619C173.056 162.313 173.578 162.151 174.208 162.151C174.874 162.151 175.432 162.313 175.846 162.619C176.26 162.925 176.566 163.339 176.8 163.861C177.034 164.383 177.178 164.959 177.268 165.607C177.34 166.273 177.376 166.939 177.376 167.623ZM188.926 160.909H180.574V173.869H181.798V167.677H188.278V166.633H181.798V161.953H188.926V160.909ZM193.222 166.813V167.749C193.78 167.713 194.302 167.731 194.788 167.785C195.274 167.857 195.706 167.983 196.084 168.181C196.444 168.379 196.732 168.649 196.948 168.991C197.164 169.333 197.29 169.765 197.308 170.287C197.326 170.665 197.254 171.025 197.11 171.367C196.948 171.709 196.732 172.015 196.462 172.285C196.174 172.555 195.832 172.753 195.436 172.915C195.04 173.077 194.608 173.149 194.158 173.149C193.222 173.149 192.466 172.897 191.89 172.393C191.296 171.907 191.008 171.169 191.008 170.197H189.856C189.928 170.935 190.072 171.565 190.27 172.051C190.468 172.555 190.756 172.951 191.116 173.257C191.476 173.563 191.926 173.797 192.466 173.923C193.006 174.049 193.636 174.121 194.374 174.121C195.022 174.103 195.598 173.995 196.12 173.779C196.624 173.581 197.056 173.293 197.398 172.951C197.74 172.609 198.01 172.195 198.19 171.745C198.37 171.295 198.46 170.791 198.46 170.269C198.46 169.981 198.424 169.675 198.37 169.369C198.316 169.063 198.19 168.757 198.028 168.469C197.866 168.199 197.632 167.929 197.344 167.695C197.038 167.461 196.66 167.281 196.21 167.137C196.822 166.867 197.272 166.507 197.578 166.021C197.866 165.535 198.01 164.977 198.01 164.311C198.01 163.789 197.92 163.321 197.722 162.925C197.524 162.529 197.272 162.205 196.948 161.935C196.624 161.683 196.246 161.485 195.814 161.359C195.364 161.233 194.896 161.179 194.392 161.179C193.87 161.179 193.348 161.233 192.862 161.323C192.358 161.431 191.908 161.665 191.512 162.025C191.098 162.421 190.792 162.853 190.594 163.303C190.396 163.771 190.288 164.293 190.288 164.869H191.44C191.44 164.473 191.512 164.113 191.638 163.771C191.764 163.447 191.962 163.159 192.196 162.907C192.43 162.673 192.718 162.475 193.06 162.349C193.384 162.223 193.744 162.151 194.158 162.151C194.518 162.151 194.86 162.187 195.202 162.277C195.526 162.367 195.814 162.493 196.066 162.673C196.3 162.853 196.498 163.087 196.642 163.357C196.786 163.645 196.858 163.987 196.858 164.383C196.858 164.869 196.768 165.283 196.588 165.589C196.408 165.895 196.156 166.147 195.85 166.327C195.526 166.525 195.148 166.651 194.698 166.705C194.248 166.777 193.762 166.813 193.222 166.813Z" fill="#042245"/>
</svg>
