<svg width="325" height="325" viewBox="0 0 325 325" fill="none" xmlns="http://www.w3.org/2000/svg">
<rect x="0.246094" y="0.869141" width="324" height="324" fill="#042245"/>
<path d="M133.73 170.869L134.306 166.765H136.304V165.703H134.468L134.828 163.183H136.772V162.121H134.972L135.53 158.305H134.468L133.91 162.121H131.462L132.038 158.305H130.958L130.382 162.121H128.222V163.183H130.238L129.86 165.703H127.718V166.765H129.698L129.086 170.869H130.148L130.76 166.765H133.226L132.668 170.869H133.73ZM133.406 165.703H130.922L131.318 163.183H133.766L133.406 165.703ZM142.238 158.179C141.32 158.179 140.582 158.359 140.024 158.737C139.466 159.115 139.034 159.601 138.728 160.195C138.422 160.807 138.206 161.491 138.098 162.265C137.99 163.039 137.936 163.813 137.936 164.623C137.936 165.505 137.99 166.333 138.116 167.107C138.242 167.899 138.458 168.583 138.782 169.177C139.088 169.771 139.538 170.257 140.096 170.599C140.654 170.941 141.356 171.121 142.238 171.121C143.12 171.121 143.822 170.941 144.38 170.599C144.938 170.257 145.37 169.789 145.694 169.195C146 168.601 146.216 167.935 146.342 167.161C146.468 166.387 146.522 165.595 146.522 164.749C146.522 164.263 146.504 163.759 146.468 163.237C146.432 162.715 146.36 162.211 146.252 161.725C146.144 161.239 146 160.789 145.802 160.357C145.604 159.925 145.334 159.547 145.028 159.223C144.704 158.899 144.308 158.647 143.858 158.449C143.408 158.269 142.868 158.179 142.238 158.179ZM145.37 164.623C145.37 165.253 145.334 165.901 145.262 166.567C145.19 167.233 145.046 167.827 144.83 168.349C144.614 168.871 144.308 169.303 143.894 169.645C143.48 169.987 142.922 170.149 142.238 170.149C141.626 170.149 141.122 170.023 140.726 169.753C140.312 169.501 139.988 169.141 139.754 168.673C139.52 168.205 139.34 167.629 139.25 166.963C139.142 166.297 139.088 165.559 139.088 164.749C139.088 164.047 139.142 163.363 139.232 162.697C139.322 162.031 139.466 161.419 139.7 160.897C139.934 160.375 140.24 159.943 140.654 159.619C141.05 159.313 141.572 159.151 142.202 159.151C142.868 159.151 143.426 159.313 143.84 159.619C144.254 159.925 144.56 160.339 144.794 160.861C145.028 161.383 145.172 161.959 145.262 162.607C145.334 163.273 145.37 163.939 145.37 164.623ZM147.884 166.747V167.737H153.68V170.869H154.832V167.737H156.596V166.765H154.832V158.305H153.788L147.884 166.747ZM153.68 160.033V166.765H149.018L153.68 160.033ZM158.48 162.337H159.704C159.686 161.905 159.74 161.491 159.866 161.113C159.992 160.735 160.19 160.393 160.442 160.105C160.676 159.817 160.982 159.583 161.324 159.403C161.666 159.241 162.044 159.151 162.458 159.151C162.854 159.151 163.214 159.205 163.556 159.313C163.898 159.439 164.186 159.601 164.438 159.835C164.69 160.069 164.888 160.339 165.032 160.663C165.176 160.987 165.248 161.347 165.248 161.761C165.248 162.265 165.158 162.697 164.978 163.039C164.798 163.381 164.546 163.705 164.24 163.975C163.934 164.245 163.574 164.497 163.16 164.731C162.746 164.965 162.314 165.235 161.864 165.505C161.414 165.793 160.946 166.117 160.478 166.477C159.992 166.837 159.542 167.269 159.092 167.773C158.678 168.241 158.426 168.727 158.3 169.213C158.174 169.699 158.12 170.257 158.102 170.869H166.4V169.897H159.326C159.344 169.591 159.398 169.321 159.488 169.069C159.578 168.835 159.704 168.601 159.866 168.403C160.028 168.205 160.19 168.007 160.388 167.827L160.982 167.341C161.288 167.107 161.648 166.873 162.044 166.657C162.44 166.441 162.836 166.207 163.25 165.973C163.664 165.739 164.06 165.505 164.456 165.235C164.834 164.965 165.194 164.677 165.5 164.335C165.806 163.993 166.04 163.615 166.238 163.183C166.418 162.751 166.508 162.247 166.508 161.689C166.508 161.203 166.418 160.753 166.256 160.321C166.094 159.889 165.842 159.511 165.518 159.205C165.176 158.899 164.78 158.647 164.294 158.449C163.808 158.269 163.232 158.179 162.602 158.179C161.972 158.179 161.414 158.269 160.91 158.467C160.388 158.665 159.956 158.953 159.596 159.313C159.236 159.691 158.966 160.123 158.768 160.627C158.57 161.149 158.48 161.707 158.48 162.337ZM168.482 162.337H169.706C169.688 161.905 169.742 161.491 169.868 161.113C169.994 160.735 170.192 160.393 170.444 160.105C170.678 159.817 170.984 159.583 171.326 159.403C171.668 159.241 172.046 159.151 172.46 159.151C172.856 159.151 173.216 159.205 173.558 159.313C173.9 159.439 174.188 159.601 174.44 159.835C174.692 160.069 174.89 160.339 175.034 160.663C175.178 160.987 175.25 161.347 175.25 161.761C175.25 162.265 175.16 162.697 174.98 163.039C174.8 163.381 174.548 163.705 174.242 163.975C173.936 164.245 173.576 164.497 173.162 164.731C172.748 164.965 172.316 165.235 171.866 165.505C171.416 165.793 170.948 166.117 170.48 166.477C169.994 166.837 169.544 167.269 169.094 167.773C168.68 168.241 168.428 168.727 168.302 169.213C168.176 169.699 168.122 170.257 168.104 170.869H176.402V169.897H169.328C169.346 169.591 169.4 169.321 169.49 169.069C169.58 168.835 169.706 168.601 169.868 168.403C170.03 168.205 170.192 168.007 170.39 167.827L170.984 167.341C171.29 167.107 171.65 166.873 172.046 166.657C172.442 166.441 172.838 166.207 173.252 165.973C173.666 165.739 174.062 165.505 174.458 165.235C174.836 164.965 175.196 164.677 175.502 164.335C175.808 163.993 176.042 163.615 176.24 163.183C176.42 162.751 176.51 162.247 176.51 161.689C176.51 161.203 176.42 160.753 176.258 160.321C176.096 159.889 175.844 159.511 175.52 159.205C175.178 158.899 174.782 158.647 174.296 158.449C173.81 158.269 173.234 158.179 172.604 158.179C171.974 158.179 171.416 158.269 170.912 158.467C170.39 158.665 169.958 158.953 169.598 159.313C169.238 159.691 168.968 160.123 168.77 160.627C168.572 161.149 168.482 161.707 168.482 162.337ZM177.89 166.747V167.737H183.686V170.869H184.838V167.737H186.602V166.765H184.838V158.305H183.794L177.89 166.747ZM183.686 160.033V166.765H179.024L183.686 160.033ZM189.026 167.575H187.874C187.928 168.241 188.072 168.781 188.324 169.231C188.558 169.681 188.882 170.059 189.278 170.329C189.674 170.617 190.142 170.815 190.664 170.941C191.186 171.067 191.744 171.121 192.338 171.121C192.86 171.121 193.364 171.031 193.85 170.833C194.336 170.653 194.75 170.383 195.128 170.023C195.506 169.663 195.794 169.213 196.028 168.691C196.244 168.169 196.352 167.575 196.352 166.909C196.352 166.261 196.262 165.667 196.064 165.145C195.866 164.623 195.578 164.191 195.218 163.831C194.858 163.471 194.426 163.201 193.94 163.003C193.454 162.805 192.914 162.715 192.338 162.715C192.05 162.715 191.798 162.733 191.564 162.751C191.33 162.769 191.096 162.823 190.88 162.877C190.664 162.949 190.448 163.039 190.25 163.147C190.034 163.255 189.8 163.381 189.548 163.543L190.34 159.277H195.668V158.305H189.368L188.342 164.875L189.296 165.001C189.638 164.551 190.052 164.209 190.502 163.993C190.952 163.795 191.474 163.687 192.05 163.687C192.536 163.687 192.968 163.759 193.364 163.921C193.742 164.083 194.084 164.299 194.354 164.587C194.624 164.875 194.822 165.217 194.984 165.613C195.128 166.009 195.2 166.441 195.2 166.909C195.2 167.359 195.128 167.791 195.002 168.169C194.858 168.565 194.66 168.907 194.39 169.195C194.12 169.501 193.814 169.735 193.436 169.897C193.058 170.059 192.626 170.149 192.158 170.149C191.33 170.149 190.628 169.933 190.07 169.501C189.494 169.087 189.152 168.439 189.026 167.575Z" fill="white"/>
</svg>
