<svg width="346" height="347" viewBox="0 0 346 347" fill="none" xmlns="http://www.w3.org/2000/svg">
<circle cx="182.778" cy="160.331" r="105.103" fill="#FFC700"/>
<path d="M163.589 163.909C163.589 126.056 181.113 72.5276 181.113 72.5276C181.113 72.5276 201.967 123.334 201.967 163.909C201.967 200.532 184.002 248.132 184.002 248.132C184.002 248.132 163.589 198.101 163.589 163.909Z" fill="white"/>
<path d="M179.199 141.141C217.052 141.141 270.58 158.665 270.58 158.665C270.58 158.665 219.774 179.519 179.199 179.519C142.576 179.519 94.9755 161.553 94.9755 161.553C94.9755 161.553 145.007 141.141 179.199 141.141Z" fill="white"/>
<path d="M205.452 13.8682C205.452 5.5082 198.302 0.5582 185.542 0.5582C173.497 0.5582 166.292 6.3332 166.292 13.8132C166.292 20.5782 171.242 23.9882 181.417 25.0332L188.457 25.7482C193.847 26.2982 196.322 27.0132 196.322 30.0932C196.322 33.1732 193.132 34.9882 187.192 34.9882C179.492 34.9882 175.532 32.5682 175.587 27.7282H165.357C165.357 37.6832 172.507 42.5782 185.982 42.5782C200.007 42.5782 207.212 37.7382 207.212 28.9932C207.212 21.9532 202.372 18.3782 192.362 17.2782L184.937 16.5082C179.217 15.9032 176.852 15.4632 176.852 12.4932C176.852 9.6882 179.932 7.9282 185.707 7.9282C191.812 7.9282 195.057 9.9082 195.497 13.8682H205.452Z" fill="#FFC700"/>
<path d="M167.007 284.079V324.009H176.632V295.574L196.762 324.009H208.917V284.079H199.292V312.239L179.327 284.079H167.007Z" fill="#FFC700"/>
<path d="M0.815984 142.212L13.521 182.142H23.366L33.376 153.047L42.946 182.142H53.121L66.046 142.212H55.651L47.456 169.107L38.381 142.212H28.591L19.186 169.107L11.211 142.212H0.815984Z" fill="#FFC700"/>
<path d="M309.873 142.212V182.142H345.348V173.947H319.883V165.257H342.543V157.062H319.883V150.407H345.348V142.212H309.873Z" fill="#FFC700"/>
</svg>
