<svg width="868" height="202" viewBox="0 0 868 202" fill="none" xmlns="http://www.w3.org/2000/svg">
<path d="M82.8952 201.045H96.643L108.751 174.937H155.544L167.148 201.045H180.643L139.904 109.478H126.409L82.8952 201.045ZM114.175 162.955L132.715 123.982L150.247 162.955H114.175Z" fill="#FFC700"/>
<path d="M180.692 201.045H194.44L206.548 174.937H253.341L264.945 201.045H278.44L237.701 109.478H224.206L180.692 201.045ZM211.972 162.955L230.512 123.982L248.044 162.955H211.972Z" fill="#FFC700"/>
<path d="M288.958 201.045H301.949V161.694H336.129C351.012 161.694 353.913 165.856 355.048 183.766C355.679 193.478 356.183 198.397 357.318 201.045H372.453C369.679 198.397 369.048 190.955 368.291 178.847C367.282 162.577 363.877 158.793 353.913 156.901C364.255 153.622 369.679 146.307 369.679 134.451C369.679 118.307 358.453 109.478 337.138 109.478H288.958V201.045ZM301.949 120.198H330.832C348.489 120.198 356.688 123.099 356.688 135.46C356.688 147.316 348.742 150.973 331.967 150.973H301.949V120.198Z" fill="#FFC700"/>
<path d="M513.128 201.045H526.876L538.984 174.937H585.777L597.381 201.045H610.876L570.138 109.478H556.642L513.128 201.045ZM544.408 162.955L562.948 123.982L580.48 162.955H544.408Z" fill="#FFC700"/>
<path d="M600.579 109.478V121.46H635.516V201.045H648.507V121.46H683.444V109.478H600.579Z" fill="#FFC700"/>
<path d="M693.941 201.045H767.599V189.063H706.932V160.18H763.058V148.198H706.932V121.46H766.716V109.478H693.941V201.045Z" fill="#FFC700"/>
<path d="M784.102 201.045H797.093V161.694H831.273C846.156 161.694 849.057 165.856 850.192 183.766C850.823 193.478 851.327 198.397 852.462 201.045H867.597C864.823 198.397 864.192 190.955 863.435 178.847C862.426 162.577 859.021 158.793 849.057 156.901C859.399 153.622 864.823 146.307 864.823 134.451C864.823 118.307 853.597 109.478 832.282 109.478H784.102V201.045ZM797.093 120.198H825.976C843.633 120.198 851.832 123.099 851.832 135.46C851.832 147.316 843.886 150.973 827.111 150.973H797.093V120.198Z" fill="#FFC700"/>
<path d="M348.049 6.14966L409.657 201.045H425.044L450.396 122.09L475.999 201.045H491.387L522.161 109.478H508.414L482.936 189.568L457.963 109.478H443.08L418.107 189.568L361.797 6.14966H348.049Z" fill="#FFC700"/>
<path d="M0.353516 109.478L40.4617 201.045H55.3445L59.5537 191.344H50.005L48.0075 189.568L14.2274 109.478H0.353516Z" fill="#FFC700"/>
<path d="M513.165 201.015H526.912L539.02 174.907H585.813L597.417 201.015H610.912L570.174 109.448H556.678L513.165 201.015ZM544.444 162.925L562.984 123.952L580.516 162.925H544.444Z" fill="white"/>
<path d="M600.615 109.448V121.429H635.552V201.015H648.543V121.429H683.48V109.448H600.615Z" fill="white"/>
<path d="M693.977 201.015H767.635V189.033H706.968V160.15H763.094V148.168H706.968V121.429H766.752V109.448H693.977V201.015Z" fill="white"/>
<path d="M784.138 201.015H797.129V161.664H831.309C846.192 161.664 849.093 165.826 850.228 183.736C850.859 193.448 851.363 198.366 852.498 201.015H867.633C864.859 198.366 864.228 190.925 863.471 178.817C862.462 162.547 859.057 158.763 849.093 156.871C859.435 153.592 864.859 146.276 864.859 134.421C864.859 118.276 853.633 109.448 832.318 109.448H784.138V201.015ZM797.129 120.168H826.012C843.669 120.168 851.868 123.069 851.868 135.43C851.868 147.285 843.922 150.943 827.147 150.943H797.129V120.168Z" fill="white"/>
<path d="M82.7214 201.046H96.4692L108.577 174.938H155.37L166.974 201.046H180.469L139.73 109.478H126.235L82.7214 201.046ZM114.001 162.956L132.541 123.983L150.073 162.956H114.001Z" fill="white"/>
<path d="M180.519 201.046H194.266L206.374 174.938H253.167L264.771 201.046H278.266L237.528 109.478H224.032L180.519 201.046ZM211.798 162.956L230.338 123.983L247.87 162.956H211.798Z" fill="white"/>
<path d="M288.784 201.046H301.775V161.695H335.955C350.838 161.695 353.739 165.857 354.874 183.767C355.505 193.478 356.009 198.397 357.144 201.046H372.28C369.505 198.397 368.874 190.956 368.117 178.848C367.108 162.577 363.703 158.794 353.739 156.902C364.081 153.622 369.505 146.307 369.505 134.451C369.505 118.307 358.28 109.478 336.964 109.478H288.784V201.046ZM301.775 120.199H330.658C348.316 120.199 356.514 123.1 356.514 135.46C356.514 147.316 348.568 150.974 331.793 150.974H301.775V120.199Z" fill="white"/>
<path d="M0 109.51L40.0946 201.046H54.9724L59.1801 191.348H49.6347L47.6379 189.573L13.8692 109.51H0Z" fill="#FFC700"/>
<path fill-rule="evenodd" clip-rule="evenodd" d="M61.4123 187.032L56.9855 195.992L46.7556 190.938L51.1824 181.978L61.4123 187.032ZM73.8073 161.943L64.9538 179.864L54.7238 174.81L63.5774 156.889L73.8073 161.943ZM86.2024 136.854L77.3488 154.775L67.1189 149.721L75.9724 131.8L86.2024 136.854ZM98.5974 111.766L89.7438 129.686L79.5139 124.632L88.3675 106.712L98.5974 111.766ZM110.992 86.6769L102.139 104.597L91.9089 99.5434L100.762 81.6229L110.992 86.6769ZM119.905 68.6374L114.534 79.5087L104.304 74.4547L109.675 63.5833L119.905 68.6374ZM135.782 36.4995L126.929 54.42L116.699 49.366L125.553 31.4454L135.782 36.4995ZM151.169 5.90102L139.324 29.3313L129.094 24.2772L138.361 5.90101L151.169 5.90102Z" fill="#FFC700"/>
<path d="M119.987 54.9273L120.911 95.7652L87.2104 79.6413L119.987 54.9273Z" fill="#FFC700"/>
</svg>
