<svg width="127" height="170" viewBox="0 0 127 170" fill="none" xmlns="http://www.w3.org/2000/svg">
<path d="M123.56 147.345C122.041 147.345 120.814 146.078 120.814 144.511C120.814 133.572 112.19 124.672 101.588 124.672C100.07 124.672 98.8423 123.406 98.8423 121.839C98.8423 120.272 100.07 119.006 101.588 119.006C115.218 119.006 126.306 130.447 126.306 144.511C126.306 146.078 125.078 147.345 123.56 147.345Z" fill="#FFC700"/>
<path d="M2.74577 147.339C1.22736 147.339 0 146.072 0 144.506C0 130.444 11.0847 119.006 24.712 119.006C26.2304 119.006 27.4578 120.272 27.4578 121.839C27.4578 123.406 26.2304 124.672 24.712 124.672C14.116 124.672 5.49155 133.572 5.49155 144.506C5.49155 146.072 4.26419 147.339 2.74577 147.339Z" fill="#FFC700"/>
<path d="M101.589 124.672H82.3742C80.8558 124.672 79.6284 123.406 79.6284 121.839C79.6284 120.272 80.8558 119.006 82.3742 119.006H101.589C103.108 119.006 104.335 120.272 104.335 121.839C104.335 123.406 103.108 124.672 101.589 124.672Z" fill="#FFC700"/>
<path d="M43.9323 124.672H24.7118C23.1934 124.672 21.9661 123.406 21.9661 121.839C21.9661 120.272 23.1934 119.006 24.7118 119.006H43.9323C45.4507 119.006 46.678 120.272 46.678 121.839C46.678 123.406 45.4507 124.672 43.9323 124.672Z" fill="#FFC700"/>
<path d="M123.555 167.167C122.037 167.167 120.809 165.897 120.809 164.333L120.812 144.511C120.812 142.944 122.042 141.678 123.558 141.678C125.076 141.678 126.304 142.947 126.304 144.511L126.301 164.333C126.301 165.9 125.071 167.167 123.555 167.167Z" fill="#FFC700"/>
<path d="M120.808 170C119.29 170 118.062 168.733 118.062 167.166C118.062 165.6 119.29 164.333 120.808 164.333C120.808 162.766 122.035 161.5 123.554 161.5C125.072 161.5 126.3 162.766 126.3 164.333C126.3 167.458 123.837 170 120.808 170Z" fill="#FFC700"/>
<path d="M5.49155 170C2.46296 170 0 167.458 0 164.333C0 162.766 1.22736 161.5 2.74577 161.5C4.26419 161.5 5.49155 162.766 5.49155 164.333C7.00996 164.333 8.23732 165.6 8.23732 167.166C8.23732 168.733 7.00996 170 5.49155 170Z" fill="#FFC700"/>
<path d="M2.74577 167.166C1.22736 167.166 0 165.9 0 164.333V144.505C0 142.939 1.22736 141.672 2.74577 141.672C4.26419 141.672 5.49155 142.939 5.49155 144.505V164.333C5.49155 165.9 4.26419 167.166 2.74577 167.166Z" fill="#FFC700"/>
<path d="M120.812 170H5.49187C3.97346 170 2.74609 168.733 2.74609 167.167C2.74609 165.6 3.97346 164.333 5.49187 164.333H120.812C122.33 164.333 123.557 165.6 123.557 167.167C123.557 168.733 122.33 170 120.812 170Z" fill="#FFC700"/>
<path d="M82.3742 124.672C80.8558 124.672 79.6284 123.406 79.6284 121.839V105.604C79.6284 104.037 80.8558 102.771 82.3742 102.771C83.8926 102.771 85.12 104.037 85.12 105.604V121.839C85.12 123.406 83.8926 124.672 82.3742 124.672Z" fill="#FFC700"/>
<path d="M43.933 124.672C42.4146 124.672 41.1873 123.406 41.1873 121.839V105.604C41.1873 104.037 42.4146 102.771 43.933 102.771C45.4514 102.771 46.6788 104.037 46.6788 105.604V121.839C46.6788 123.406 45.4514 124.672 43.933 124.672Z" fill="#FFC700"/>
<path d="M63.1524 113.339C38.9291 113.339 19.22 93.0011 19.22 68.0055C19.22 66.4415 20.4473 65.1721 21.9657 65.1721C23.4842 65.1721 24.7115 66.4415 24.7115 68.0055C24.7115 89.8759 41.955 107.672 63.1524 107.672C84.3498 107.672 101.593 89.8788 101.593 68.0055C101.593 66.4415 102.821 65.1721 104.339 65.1721C105.857 65.1721 107.085 66.4415 107.085 68.0055C107.085 93.0011 87.3756 113.339 63.1524 113.339Z" fill="#FFC700"/>
<path d="M104.339 48.1666C102.821 48.1666 101.593 46.8973 101.593 45.3333C101.593 23.46 84.3498 5.66666 63.1524 5.66666C41.955 5.66666 24.7115 23.46 24.7115 45.3333C24.7115 46.8973 23.4842 48.1666 21.9657 48.1666C20.4473 48.1666 19.22 46.8973 19.22 45.3333C19.22 20.3377 38.9291 0 63.1524 0C87.3756 0 107.085 20.3377 107.085 45.3333C107.085 46.8973 105.857 48.1666 104.339 48.1666Z" fill="#FFC700"/>
<path d="M104.339 70.8391C102.821 70.8391 101.594 69.5698 101.594 68.0058V45.3306C101.594 43.7666 102.821 42.4973 104.339 42.4973C105.858 42.4973 107.085 43.7666 107.085 45.3306V68.0058C107.085 69.5726 105.858 70.8391 104.339 70.8391Z" fill="#FFC700"/>
<path d="M21.9657 70.8391C20.4473 70.8391 19.22 69.5698 19.22 68.0058V45.3306C19.22 43.7666 20.4473 42.4973 21.9657 42.4973C23.4842 42.4973 24.7115 43.7666 24.7115 45.3306V68.0058C24.7115 69.5726 23.4842 70.8391 21.9657 70.8391Z" fill="#FFC700"/>
<path d="M71.3918 99.1558C70.6888 99.1558 69.9859 98.8781 69.4505 98.3256L67.5092 96.3224H58.7996L56.8584 98.3256C55.7848 99.4334 54.0495 99.4334 52.9759 98.3256C51.9023 97.2178 51.9023 95.4271 52.9759 94.3193L55.7216 91.4859C56.2378 90.9533 56.9325 90.6558 57.6629 90.6558H68.646C69.3764 90.6558 70.0738 90.9533 70.5873 91.4859L73.333 94.3193C74.4066 95.4271 74.4066 97.2178 73.333 98.3256C72.7976 98.8781 72.0947 99.1558 71.3918 99.1558Z" fill="#FFC700"/>
<path d="M71.3893 99.1559C69.8709 99.1559 68.6436 97.8894 68.6436 96.3226C68.6436 94.7557 69.8709 93.4892 71.3893 93.4892C83.5009 93.4892 93.3555 83.3204 93.3555 70.8226C93.3555 69.2586 94.5829 67.9893 96.1013 67.9893C97.6197 67.9893 98.8471 69.2586 98.8471 70.8226C98.8471 86.4484 86.5295 99.1559 71.3893 99.1559Z" fill="#FFC700"/>
<path d="M96.1015 73.6586C94.5831 73.6586 93.3557 72.3893 93.3557 70.8253C93.3557 64.5749 98.2816 59.4919 104.339 59.4919C105.857 59.4919 107.085 60.7613 107.085 62.3253C107.085 63.8893 105.857 65.1586 104.339 65.1586C101.31 65.1586 98.8473 67.7001 98.8473 70.8253C98.8473 72.3893 97.6199 73.6586 96.1015 73.6586Z" fill="#FFC700"/>
<path d="M54.9162 99.1559C39.776 99.1559 27.4585 86.4484 27.4585 70.8226C27.4585 69.2586 28.6859 67.9893 30.2043 67.9893C31.7227 67.9893 32.95 69.2586 32.95 70.8226C32.95 83.3204 42.8046 93.4892 54.9162 93.4892C56.4347 93.4892 57.662 94.7557 57.662 96.3226C57.662 97.8894 56.4347 99.1559 54.9162 99.1559Z" fill="#FFC700"/>
<path d="M30.2031 73.6586C28.6847 73.6586 27.4573 72.3893 27.4573 70.8253C27.4573 67.7001 24.9943 65.1586 21.9657 65.1586C20.4473 65.1586 19.22 63.8893 19.22 62.3253C19.22 60.7613 20.4473 59.4919 21.9657 59.4919C28.0229 59.4919 32.9488 64.5749 32.9488 70.8253C32.9488 72.3893 31.7215 73.6586 30.2031 73.6586Z" fill="#FFC700"/>
<path d="M63.1552 136.009C47.9024 136.009 41.7327 123.602 41.4773 123.075C40.7991 121.675 41.351 119.972 42.7074 119.275C44.0721 118.57 45.7168 119.148 46.3895 120.544C46.5817 120.933 51.3758 130.342 63.1525 130.342C75.0444 130.342 79.8687 120.644 79.9154 120.544C80.5909 119.148 82.2356 118.57 83.5975 119.275C84.9539 119.972 85.5058 121.675 84.8276 123.075C84.5778 123.602 78.408 136.009 63.1552 136.009Z" fill="#FFC700"/>
<path d="M123.557 158.667H2.74577C1.22736 158.667 0 157.4 0 155.833C0 154.266 1.22736 153 2.74577 153H123.557C125.076 153 126.303 154.266 126.303 155.833C126.303 157.4 125.076 158.667 123.557 158.667Z" fill="#FFC700"/>
<path d="M123.557 147.333H2.74577C1.22736 147.333 0 146.067 0 144.5C0 142.933 1.22736 141.667 2.74577 141.667H123.557C125.076 141.667 126.303 142.933 126.303 144.5C126.303 146.067 125.076 147.333 123.557 147.333Z" fill="#FFC700"/>
<path d="M120.617 136H5.69011C4.1717 136 2.94434 134.733 2.94434 133.167C2.94434 131.6 4.1717 130.333 5.69011 130.333H120.615C122.133 130.333 123.36 131.6 123.36 133.167C123.36 134.733 122.133 136 120.617 136Z" fill="#FFC700"/>
<path d="M104.339 51.0004H21.9657C20.4473 51.0004 19.22 49.7311 19.22 48.1671C19.22 46.6031 20.4473 45.3337 21.9657 45.3337H104.339C105.857 45.3337 107.085 46.6031 107.085 48.1671C107.085 49.7311 105.857 51.0004 104.339 51.0004Z" fill="#FFC700"/>
<path d="M123.467 52.4199C122.747 52.4199 122.034 52.1309 121.493 51.5557C119.447 49.3712 116.734 48.1671 113.859 48.1671H113.857C110.979 48.1671 108.269 49.3712 106.221 51.5529C105.163 52.6749 103.428 52.7089 102.338 51.6181C101.248 50.5272 101.221 48.7366 102.275 47.6117C105.367 44.3137 109.48 42.4976 113.859 42.4976H113.862C118.242 42.4976 122.355 44.3166 125.444 47.6146C126.498 48.7394 126.468 50.5329 125.381 51.6209C124.842 52.1536 124.153 52.4199 123.467 52.4199Z" fill="#FFC700"/>
<path d="M113.857 56.6657C109.477 56.6657 105.361 54.8496 102.27 51.5516C101.215 50.4267 101.243 48.6332 102.333 47.5452C103.423 46.4601 105.161 46.4884 106.215 47.6104C110.312 51.9794 117.396 51.9766 121.49 47.6132C122.547 46.4884 124.285 46.4601 125.372 47.5481C126.463 48.6361 126.49 50.4296 125.436 51.5544C122.347 54.8496 118.233 56.6657 113.857 56.6657Z" fill="#FFC700"/>
<path d="M104.341 51.0004C102.845 51.0004 101.62 49.7622 101.596 48.2124C101.524 43.5827 103.205 39.2619 106.329 36.0404C109.451 32.8218 113.688 31.0821 118.114 31.1699C119.633 31.1954 120.838 32.4846 120.813 34.0514C120.789 35.5984 119.564 36.8366 118.068 36.8366C117.999 36.8337 117.908 36.8366 117.829 36.8366C114.924 36.8366 112.225 37.9728 110.212 40.0496C108.15 42.1746 107.041 45.0419 107.087 48.1217C107.112 49.6857 105.901 50.9749 104.385 51.0004C104.372 51.0004 104.355 51.0004 104.341 51.0004Z" fill="#FFC700"/>
<path d="M112.729 48.2178C111.894 48.2178 111.071 47.8268 110.53 47.0873C109.621 45.835 109.865 44.0585 111.076 43.1207C113.827 40.9872 115.373 37.6778 115.318 34.0483C115.294 32.4843 116.504 31.1952 118.02 31.1697C119.563 31.1753 120.785 32.3937 120.81 33.9577C120.892 39.4232 118.55 44.4127 114.374 47.6512C113.882 48.0337 113.303 48.2178 112.729 48.2178Z" fill="#FFC700"/>
<path d="M96.2163 39.6664C94.6979 39.6664 93.4568 38.3971 93.4568 36.8331C93.4568 35.2691 94.6704 33.9998 96.1861 33.9998H96.2163C97.732 33.9998 98.9621 35.2691 98.9621 36.8331C98.9621 38.3971 97.732 39.6664 96.2163 39.6664Z" fill="#FFC700"/>
<path d="M85.2344 28.3334C83.7159 28.3334 82.4749 27.0641 82.4749 25.5001C82.4749 23.9361 83.6885 22.6667 85.2042 22.6667H85.2344C86.75 22.6667 87.9801 23.9361 87.9801 25.5001C87.9801 27.0641 86.75 28.3334 85.2344 28.3334Z" fill="#FFC700"/>
<path d="M74.2522 39.6664C72.7338 39.6664 71.4927 38.3971 71.4927 36.8331C71.4927 35.2691 72.7063 33.9998 74.222 33.9998H74.2522C75.7678 33.9998 76.9979 35.2691 76.9979 36.8331C76.9979 38.3971 75.7678 39.6664 74.2522 39.6664Z" fill="#FFC700"/>
<path d="M74.2527 17.0004C72.7343 17.0004 71.4932 15.7311 71.4932 14.1671C71.4932 12.6031 72.7068 11.3337 74.2225 11.3337H74.2527C75.7683 11.3337 76.9984 12.6031 76.9984 14.1671C76.9984 15.7311 75.7683 17.0004 74.2527 17.0004Z" fill="#FFC700"/>
<path d="M63.2673 28.3329C61.7489 28.3329 60.5078 27.0636 60.5078 25.4996C60.5078 23.9356 61.7214 22.6663 63.2371 22.6663H63.2673C64.783 22.6663 66.0131 23.9356 66.0131 25.4996C66.0131 27.0636 64.783 28.3329 63.2673 28.3329Z" fill="#FFC700"/>
<path d="M52.2854 39.6672C50.767 39.6672 49.5259 38.3978 49.5259 36.8338C49.5259 35.2698 50.7395 34.0005 52.2552 34.0005H52.2854C53.801 34.0005 55.0312 35.2698 55.0312 36.8338C55.0312 38.3978 53.801 39.6672 52.2854 39.6672Z" fill="#FFC700"/>
<path d="M52.2849 16.9989C50.7665 16.9989 49.5254 15.7296 49.5254 14.1656C49.5254 12.6016 50.739 11.3323 52.2547 11.3323H52.2849C53.8006 11.3323 55.0307 12.6016 55.0307 14.1656C55.0307 15.7296 53.8006 16.9989 52.2849 16.9989Z" fill="#FFC700"/>
<path d="M41.2998 28.3319C39.7814 28.3319 38.5403 27.0626 38.5403 25.4986C38.5403 23.9346 39.7539 22.6653 41.2696 22.6653H41.2998C42.8155 22.6653 44.0456 23.9346 44.0456 25.4986C44.0456 27.0626 42.8155 28.3319 41.2998 28.3319Z" fill="#FFC700"/>
<path d="M30.3188 39.6657C28.8004 39.6657 27.5593 38.3964 27.5593 36.8324C27.5593 35.2684 28.773 33.999 30.2886 33.999H30.3188C31.8345 33.999 33.0646 35.2684 33.0646 36.8324C33.0646 38.3964 31.8345 39.6657 30.3188 39.6657Z" fill="#FFC700"/>
</svg>
