<svg width="88" height="145" viewBox="0 0 88 145" fill="none" xmlns="http://www.w3.org/2000/svg">
<path fill-rule="evenodd" clip-rule="evenodd" d="M19.6684 44.1513C19.6684 57.37 30.3187 68.0858 43.4565 68.0858C56.5943 68.0858 67.2446 57.37 67.2446 44.1513C67.2446 30.9327 56.5943 20.2168 43.4565 20.2168C30.3187 20.2168 19.6684 30.9327 19.6684 44.1513ZM20.5619 44.1513C20.5619 56.8816 30.8174 67.1922 43.4565 67.1922C56.0957 67.1922 66.3511 56.8816 66.3511 44.1513C66.3511 31.421 56.0957 21.1104 43.4565 21.1104C30.8174 21.1104 20.5619 31.421 20.5619 44.1513Z" fill="#FFC700"/>
<path fill-rule="evenodd" clip-rule="evenodd" d="M4.29468 63.2535C3.57387 61.7098 2.46151 59.3274 1.02449 53.3648C0.191453 49.9082 -0.00703016 46.0628 0.000123407 43.0948C0.00370952 41.6081 0.0589456 40.3356 0.113337 39.4343C0.140539 38.9835 0.167543 38.6252 0.187812 38.3791C0.19794 38.256 0.206386 38.161 0.212338 38.0964L0.219276 38.0226L0.221652 37.9984L0.22186 37.9963L0.222965 37.9854L0.224611 37.9745C3.85599 13.9497 26.2214 -2.59503 50.1813 1.02379C74.1412 4.64261 90.6183 27.054 86.987 51.0788L86.9866 51.081C86.9866 51.081 86.9867 51.0805 86.8361 51.0571L86.9866 51.081L86.9864 51.0822L86.9858 51.0865L86.9833 51.1021L86.9735 51.1616C86.9649 51.2135 86.9519 51.2898 86.9342 51.3886C86.899 51.5861 86.8451 51.8738 86.7702 52.2374C86.6204 52.9644 86.3866 53.9957 86.0493 55.2171C85.3764 57.654 84.2887 60.8602 82.6292 63.9191L44.781 144.774L4.59999 63.9169L4.99872 63.7188L4.59186 63.8997C4.50172 63.697 4.40259 63.4846 4.29468 63.2535ZM81.8374 63.5048L82.2299 63.7179L81.8254 63.5285L44.757 142.717L5.40475 63.5285C5.3151 63.3271 5.21699 63.1171 5.11057 62.8893C4.39725 61.3625 3.31053 59.0363 1.89319 53.1553C1.08435 49.7992 0.886603 46.0351 0.893686 43.0969C0.897221 41.6305 0.951715 40.3756 1.00528 39.488C1.03205 39.0442 1.05858 38.6925 1.07836 38.4523C1.08825 38.3322 1.09644 38.24 1.10214 38.1782L1.1087 38.1085L1.10986 38.0965C4.67319 14.5635 26.5819 -1.63689 50.0478 1.9073C73.5174 5.45206 89.6614 27.4061 86.1034 50.9453L86.1031 50.9473L86.101 50.9605L86.0921 51.015C86.084 51.0636 86.0716 51.1364 86.0546 51.2316C86.0206 51.4219 85.9682 51.7018 85.895 52.0572C85.7486 52.768 85.5192 53.7798 85.188 54.9793C84.5248 57.381 83.457 60.5225 81.8374 63.5048Z" fill="#FFC700"/>
<path fill-rule="evenodd" clip-rule="evenodd" d="M82.2299 63.7179L81.8374 63.5048C83.457 60.5225 84.5248 57.381 85.188 54.9793C85.5192 53.7798 85.7486 52.768 85.895 52.0572C85.9682 51.7018 86.0206 51.4219 86.0546 51.2316C86.0716 51.1364 86.084 51.0636 86.0921 51.015L86.101 50.9605L86.1031 50.9473L86.1034 50.9453C89.6614 27.4061 73.5174 5.45206 50.0478 1.9073C26.5819 -1.63689 4.67319 14.5635 1.10986 38.0965L1.1087 38.1085L1.10214 38.1782C1.09644 38.24 1.08825 38.3322 1.07836 38.4523C1.05858 38.6925 1.03205 39.0442 1.00528 39.488C0.951715 40.3756 0.897221 41.6305 0.893686 43.0969C0.886603 46.0351 1.08435 49.7992 1.89319 53.1553C3.31053 59.0363 4.39725 61.3625 5.11057 62.8893C5.21699 63.1171 5.3151 63.3271 5.40475 63.5285L44.757 142.717L81.8254 63.5285L82.2299 63.7179ZM19.6684 44.1513C19.6684 57.37 30.3187 68.0858 43.4565 68.0858C56.5943 68.0858 67.2446 57.37 67.2446 44.1513C67.2446 30.9327 56.5943 20.2168 43.4565 20.2168C30.3187 20.2168 19.6684 30.9327 19.6684 44.1513Z" fill="#FFC700"/>
</svg>
