<svg width="62" height="48" viewBox="0 0 62 48" fill="none" xmlns="http://www.w3.org/2000/svg">
<path fill-rule="evenodd" clip-rule="evenodd" d="M14.9193 1.31044C18.3757 -0.526099 22.5398 -0.426531 25.9045 1.5731C27.2801 2.39062 28.8507 2.8221 30.4508 2.8221H32.4436C33.8296 2.8221 35.1958 2.4926 36.4295 1.86077C39.6566 0.207985 43.4891 0.243009 46.6854 1.9545L48.5611 2.95883L47.4711 4.99454L45.5954 3.99021C43.0668 2.63628 40.035 2.60857 37.4821 3.91606C35.9673 4.69191 34.2943 5.10713 32.5939 5.13024L34.3897 15.6619C35.0963 19.8062 29.2959 21.5356 27.6178 17.6809L29.735 16.7591C30.3244 18.113 32.3615 17.5056 32.1134 16.0501L30.2512 5.12949C28.305 5.09483 26.4001 4.55381 24.7248 3.55817C22.0533 1.97051 18.7471 1.89146 16.0029 3.34962L12.9038 4.99627L11.8203 2.95709L14.9193 1.31044Z" fill="#D8E0F3"/>
<path fill-rule="evenodd" clip-rule="evenodd" d="M29.5963 26.661L32.935 29.7223C34.2309 30.9105 35.3137 32.312 36.1364 33.8659L38.4597 38.2542C39.208 39.6677 40.1476 40.9714 41.2518 42.1284L41.7047 42.603C43.1325 44.0992 44.8659 45.2703 46.7869 46.0367L48.3855 46.6744C49.4251 47.0892 50.5474 47.2545 51.6624 47.1571L53.1142 47.0302C57.053 46.6861 59.6029 42.7112 58.2735 38.9876L56.0988 39.764C56.9196 42.0631 55.3452 44.5174 52.9132 44.7298L51.4614 44.8566C50.7059 44.9226 49.9455 44.8106 49.2411 44.5296L47.6425 43.8919C46.0296 43.2484 44.5741 42.265 43.3752 41.0087L42.9223 40.5342C41.9645 39.5306 41.1496 38.3998 40.5005 37.1738L38.1772 32.7855C37.2311 30.9985 35.9859 29.3868 34.4956 28.0203L31.1569 24.959L29.5963 26.661Z" fill="#D8E0F3"/>
<path fill-rule="evenodd" clip-rule="evenodd" d="M31.6029 26.661L28.2642 29.7223C26.9683 30.9105 25.8855 32.312 25.0628 33.8659L22.7395 38.2542C21.9912 39.6677 21.0517 40.9714 19.9474 42.1284L19.4946 42.603C18.0667 44.0992 16.3333 45.2703 14.4123 46.0367L12.8137 46.6744C11.7742 47.0892 10.6518 47.2545 9.53685 47.1571L8.08501 47.0302C4.1462 46.6861 1.59629 42.7112 2.92568 38.9876L5.1004 39.764C4.27959 42.0631 5.854 44.5174 8.28597 44.7298L9.73781 44.8566C10.4933 44.9226 11.2537 44.8106 11.9581 44.5296L13.5567 43.8919C15.1696 43.2484 16.6251 42.265 17.824 41.0087L18.2769 40.5342C19.2347 39.5306 20.0496 38.3998 20.6987 37.1738L23.022 32.7855C23.9681 30.9985 25.2133 29.3868 26.7036 28.0203L30.0423 24.959L31.6029 26.661Z" fill="#D8E0F3"/>
<path fill-rule="evenodd" clip-rule="evenodd" d="M29.6651 25.2328L32.4315 26.6357C34.7959 27.8347 36.8107 29.6241 38.2806 31.8304L39.909 34.2747C41.2439 36.2785 42.9735 37.9889 44.9921 39.3014L47.3599 40.841C47.9844 41.247 48.66 41.5685 49.3691 41.7969C51.9606 42.6316 54.7957 42.1624 56.9801 40.5374L57.0624 40.4761C59.9362 38.3382 61.1891 34.6464 60.2104 31.201L59.8908 30.076L57.6695 30.7071L57.9891 31.832C58.7058 34.3548 57.7883 37.058 55.6841 38.6234L55.6018 38.6847C54.0162 39.8643 51.9582 40.2048 50.0771 39.5989C49.5624 39.4331 49.0719 39.1998 48.6186 38.905L46.2508 37.3655C44.4956 36.2242 42.9915 34.7369 41.8307 32.9945L40.2023 30.5501C38.512 28.0128 36.195 25.9551 33.4759 24.5762L30.7095 23.1733L29.6651 25.2328Z" fill="#D8E0F3"/>
<path fill-rule="evenodd" clip-rule="evenodd" d="M31.5341 25.2328L28.7678 26.6357C26.4033 27.8347 24.3885 29.6241 22.9186 31.8304L21.2902 34.2747C19.9553 36.2785 18.2257 37.9889 16.2072 39.3014L13.8394 40.841C13.2148 41.247 12.5392 41.5685 11.8301 41.7969C9.23864 42.6316 6.40354 42.1624 4.21914 40.5374L4.13683 40.4761C1.26306 38.3382 0.0100744 34.6464 0.988851 31.201L1.30842 30.076L3.5297 30.7071L3.21013 31.832C2.49345 34.3548 3.41091 37.058 5.51513 38.6234L5.59744 38.6847C7.18306 39.8643 9.24102 40.2048 11.1221 39.5989C11.6368 39.4331 12.1273 39.1998 12.5806 38.905L14.9484 37.3655C16.7037 36.2242 18.2077 34.7369 19.3685 32.9945L20.9969 30.5501C22.6872 28.0128 25.0042 25.9551 27.7234 24.5762L30.4897 23.1733L31.5341 25.2328Z" fill="#D8E0F3"/>
<path fill-rule="evenodd" clip-rule="evenodd" d="M58.2157 18.4191C56.3183 16.6915 53.7522 15.8947 51.2099 16.2435L49.5297 16.4741C47.7558 16.7176 46.1631 17.688 45.1333 19.1528C44.2022 20.4773 43.8037 22.1038 44.0171 23.7087L44.0502 23.9578C44.3341 26.0935 45.6855 27.9379 47.6364 28.8522L49.0598 29.5193C50.6657 30.272 52.5728 29.9168 53.8001 28.6365C56.2531 26.0774 54.56 21.8202 51.0195 21.6447L49.9151 21.5899L49.8008 23.8963L50.9052 23.951C52.4687 24.0285 53.2163 25.9085 52.1331 27.0386C51.5911 27.604 50.749 27.7608 50.0398 27.4284L48.6164 26.7613C47.3776 26.1807 46.5195 25.0096 46.3392 23.6535L46.3061 23.4044C46.1692 22.3745 46.4249 21.3308 47.0224 20.4808C47.6832 19.5408 48.7053 18.9181 49.8437 18.7618L51.5238 18.5313C53.3881 18.2754 55.2697 18.8598 56.6611 20.1266C57.6482 21.0252 58.3268 22.2121 58.6007 23.5185L58.7175 24.0758C59.162 26.1965 58.7394 28.4069 57.5439 30.2139L57.1174 30.8586C56.4219 31.9099 55.4299 32.7311 54.2672 33.218C52.5354 33.9433 50.5718 33.8671 48.9013 33.0099L47.524 32.3031C46.677 31.8684 45.8985 31.3112 45.2139 30.6496L41.6852 27.24C39.487 25.116 36.7764 23.5973 33.8171 22.8318L30.6149 22.0035L30.0366 24.2391L33.2388 25.0674C35.8121 25.733 38.1692 27.0537 40.0806 28.9006L43.6093 32.3102C44.4571 33.1294 45.4209 33.8192 46.4697 34.3575L47.847 35.0643C50.1234 36.2325 52.7993 36.3363 55.1592 35.3479C56.7437 34.6843 58.0955 33.5653 59.0433 32.1327L59.4698 31.488C61.0057 29.1664 61.5487 26.3266 60.9775 23.602L60.8607 23.0447C60.4873 21.2632 59.5617 19.6446 58.2157 18.4191Z" fill="#D8E0F3"/>
<path fill-rule="evenodd" clip-rule="evenodd" d="M2.98348 18.4191C4.88096 16.6915 7.44705 15.8947 9.98935 16.2435L11.6695 16.4741C13.4434 16.7176 15.0361 17.688 16.0659 19.1528C16.997 20.4773 17.3955 22.1038 17.1821 23.7087L17.149 23.9578C16.8651 26.0935 15.5137 27.9379 13.5628 28.8522L12.1394 29.5193C10.5335 30.272 8.6264 29.9168 7.39911 28.6365C4.94614 26.0774 6.63922 21.8202 10.1797 21.6447L11.2841 21.5899L11.3984 23.8963L10.294 23.951C8.73056 24.0285 7.9829 25.9085 9.06613 27.0386C9.60809 27.604 10.4503 27.7608 11.1594 27.4284L12.5829 26.7613C13.8216 26.1807 14.6797 25.0096 14.86 23.6535L14.8931 23.4044C15.03 22.3745 14.7743 21.3308 14.1768 20.4808C13.516 19.5408 12.4939 18.9181 11.3556 18.7618L9.6754 18.5313C7.81116 18.2754 5.92948 18.8598 4.53807 20.1266C3.55106 21.0252 2.8724 22.2121 2.59854 23.5185L2.48172 24.0758C2.03717 26.1965 2.45979 28.4069 3.65532 30.2139L4.08178 30.8586C4.77731 31.9099 5.76929 32.7311 6.932 33.218C8.66381 33.9433 10.6275 33.8671 12.2979 33.0099L13.6752 32.3031C14.5223 31.8684 15.3007 31.3112 15.9854 30.6496L19.514 27.24C21.7122 25.116 24.4229 23.5973 27.3822 22.8318L30.5843 22.0035L31.1626 24.2391L27.9605 25.0674C25.3871 25.733 23.03 27.0537 21.1186 28.9006L17.5899 32.3102C16.7422 33.1294 15.7783 33.8192 14.7295 34.3575L13.3522 35.0643C11.0759 36.2325 8.39995 36.3363 6.03998 35.3479C4.45552 34.6843 3.10373 33.5653 2.15592 32.1327L1.72946 31.488C0.193502 29.1664 -0.349461 26.3266 0.221676 23.602L0.338498 23.0447C0.711967 21.2632 1.63747 19.6446 2.98348 18.4191Z" fill="#D8E0F3"/>
<path fill-rule="evenodd" clip-rule="evenodd" d="M23.5657 37.669L22.1367 37.0226L23.0884 34.9187L24.5174 35.5651C28.6808 37.4483 33.4656 37.3846 37.5774 35.3912L38.5251 34.9318L39.5324 37.0096L38.5847 37.4691C33.8562 39.7614 28.3536 39.8347 23.5657 37.669Z" fill="#D8E0F3"/>
</svg>
