<svg width="173" height="216" viewBox="0 0 173 216" fill="none" xmlns="http://www.w3.org/2000/svg">
<path d="M102.719 80.9999C102.719 76.5341 99.0803 72.8999 94.6094 72.8999H78.3906C73.9197 72.8999 70.2812 76.5341 70.2812 80.9999V89.0999H102.719V80.9999ZM97.3125 83.6999H75.6875V80.9999C75.6875 79.5122 76.9012 78.2999 78.3906 78.2999H94.6094C96.0988 78.2999 97.3125 79.5122 97.3125 80.9999V83.6999Z" fill="#FFC700"/>
<path d="M149.801 126.695C148.99 118.986 143.644 112.63 136.183 110.5L133.604 109.766L141.67 103.907L131.72 101.825C127.017 100.842 122.327 99.6219 117.694 98.28C118.478 95.9796 118.937 93.5604 118.937 91.0683C118.937 89.5833 118.788 88.0929 118.496 86.6403L117.758 82.9575C123.135 81.1701 127.046 76.1589 127.046 70.2V53.8137C133.634 52.9389 139.373 48.9105 142.411 42.8463L144.487 38.6964L132.439 35.6886C131.282 35.3997 130.155 34.9839 129.087 34.4493C124.284 32.0517 120.962 27.4482 120.199 22.1373C119.27 15.6222 114.89 10.0548 108.771 7.61125L100.704 4.39015L100.069 7.57075C100.031 7.75435 99.6313 9.59575 98.4717 11.7369C94.9414 9.38785 90.7948 8.09995 86.4995 8.09995C82.2151 8.09995 78.0739 9.38245 74.5517 11.7207C73.384 9.58495 72.9677 7.74895 72.9298 7.57075L72.2919 4.38745L64.2258 7.61125C58.1086 10.0548 53.7295 15.6222 52.797 22.1346C52.0374 27.4455 48.7152 32.049 43.9118 34.4493C42.844 34.9812 41.7168 35.3997 40.5599 35.6859L28.5121 38.6937L30.5881 42.8463C33.6237 48.9078 39.3624 52.9362 45.9526 53.811V70.2C45.9526 76.1589 49.8641 81.1701 55.2379 82.9575L54.4999 86.6403C54.2107 88.0929 54.062 89.5833 54.062 91.0683C54.062 93.5604 54.5215 95.9795 55.3027 98.2772C50.6696 99.6191 45.9797 100.842 41.2735 101.822L31.326 103.904L39.3922 109.763L36.8134 110.497C29.3527 112.628 24.006 118.984 23.195 126.692L18.6213 170.1H154.378L149.801 126.695ZM128.649 106.688L100.694 126.994L108.157 131.965C105.251 133.429 102.545 135.208 100.015 137.217V115.627C102.426 113.829 104.932 112.161 107.551 110.665C110.765 108.832 113.385 106.24 115.323 103.221C119.718 104.52 124.176 105.705 128.649 106.688ZM59.4683 91.0683C59.4683 90.1692 59.5602 89.2701 59.7007 88.3818C64.4961 98.3691 74.6896 105.3 86.4995 105.3C98.3095 105.3 108.503 98.3691 113.298 88.3818C113.439 89.2701 113.531 90.1692 113.531 91.0683C113.531 97.2135 110.211 102.929 104.867 105.978C98.7528 109.466 93.1303 113.756 88.1538 118.73L86.4995 120.382L84.8452 118.73C79.8688 113.759 74.2463 109.469 68.1318 105.978C62.7877 102.929 59.4683 97.2135 59.4683 91.0683ZM51.3589 52.9335C52.4699 52.3908 54.2945 51.5781 56.7651 50.6925V56.9727C54.7567 57.3831 52.9375 58.2741 51.3589 59.4675V52.9335ZM121.64 59.4701C120.062 58.2767 118.242 57.383 116.234 56.9753V50.6925C118.707 51.5781 120.532 52.3908 121.64 52.9335V59.4701ZM62.1714 48.9942C68.2156 47.3499 76.4033 45.9 86.4995 45.9C96.5957 45.9 104.783 47.3499 110.828 48.9942V75.6C110.828 88.9974 99.9124 99.9 86.4995 99.9C73.0866 99.9 62.1714 88.9974 62.1714 75.6V48.9942ZM78.3901 120.085C79.2795 120.892 80.1715 121.697 81.023 122.545L86.4995 128.018L91.9761 122.548C92.8275 121.697 93.7169 120.895 94.6089 120.088V164.7H78.3901V120.085ZM116.12 77.8383C116.177 77.0958 116.234 76.3559 116.234 75.6V62.5968C119.372 63.7146 121.64 66.6846 121.64 70.2C121.64 73.7559 119.318 76.7529 116.12 77.8383ZM95.063 15.957C93.0519 17.6337 90.2974 18.9 86.4995 18.9C82.7206 18.9 79.9715 17.6256 77.9603 15.9408C80.5094 14.3586 83.4558 13.5 86.4995 13.5C89.5541 13.5 92.5086 14.3667 95.063 15.957ZM36.5106 42.2658L41.8736 40.9266C43.4144 40.5405 44.9146 39.987 46.3311 39.2796C52.7213 36.0882 57.1409 29.9673 58.1518 22.8987C58.8114 18.2898 61.9092 14.3532 66.2369 12.6252L68.5508 11.6991C70.7106 17.2044 76.1466 24.3 86.4995 24.3C96.8525 24.3 102.288 17.2044 104.448 11.6991L106.762 12.6225C111.093 14.3532 114.19 18.2898 114.847 22.8987C115.858 29.9646 120.275 36.0882 126.668 39.2796C128.087 39.987 129.587 40.5405 131.123 40.9266L136.486 42.2658C133.872 46.0377 129.671 48.3786 125.016 48.5865C121.848 46.8855 108.46 40.5 86.4995 40.5C64.5393 40.5 51.1507 46.8855 47.98 48.5865C43.3279 48.3759 39.1245 46.035 36.5106 42.2658ZM51.3589 70.2C51.3589 66.6846 53.6268 63.7146 56.7651 62.5968V75.6C56.7651 76.3559 56.8219 77.0958 56.8787 77.8383C53.6809 76.7529 51.3589 73.7559 51.3589 70.2ZM57.6788 103.221C59.6142 106.24 62.2363 108.829 65.4503 110.665C68.0669 112.158 70.5754 113.829 72.9839 115.625V137.214C70.4538 135.205 67.7506 133.426 64.8448 131.965L72.3081 126.994L44.3524 106.688C48.8234 105.705 53.2808 104.52 57.6788 103.221ZM28.5742 127.259C29.1527 121.754 32.9722 117.212 38.3028 115.692L44.9444 113.797L62.8499 126.805L54.0945 132.637L62.2822 136.728C65.68 138.426 68.7968 140.575 71.6053 143.103H64.8745V148.503H72.9839V153.903H64.8745V159.303H72.9839V164.703H46.1689L48.6477 132.511L43.2576 132.097L40.7464 164.7H24.6277L28.5742 127.259ZM132.253 164.7L129.741 132.092L124.351 132.505L126.83 164.7H100.015V159.3H108.125V153.9H100.015V148.5H108.125V143.1H101.394C104.202 140.57 107.319 138.421 110.717 136.725L118.905 132.635L110.149 126.803L128.055 113.794L134.696 115.69C140.027 117.21 143.844 121.751 144.425 127.256L148.371 164.7H132.253Z" fill="#FFC700"/>
</svg>
