<svg width="173" height="367" viewBox="0 0 173 367" fill="none" xmlns="http://www.w3.org/2000/svg">
<path fill-rule="evenodd" clip-rule="evenodd" d="M81.2907 337.472L60.3509 337.472L60.3509 325.472L81.2907 325.472L81.2907 337.472ZM111.654 337.472L90.7137 337.472L90.7137 325.472L111.654 325.472L111.654 337.472ZM142.016 337.472L121.077 337.472L121.076 325.472L142.016 325.472L142.016 337.472ZM172.379 337.472L151.439 337.472L151.439 325.472L172.379 325.472L172.379 337.472Z" fill="#FFC700"/>
<path d="M70.0101 337.472H76.0101V325.472H70.0101V337.472ZM-7.62939e-06 331.472L60 366.113V296.831L-7.62939e-06 331.472ZM70.0101 325.472H54V337.472H70.0101V325.472Z" fill="#FFC700"/>
<line x1="165.999" y1="0.000308485" x2="165.982" y2="336.108" stroke="#FFC700" stroke-width="12" stroke-dasharray="20 9"/>
</svg>
