<svg width="626" height="174" viewBox="0 0 626 174" fill="none" xmlns="http://www.w3.org/2000/svg">
<path fill-rule="evenodd" clip-rule="evenodd" d="M41.4287 91.8138L41.4287 112.754L29.4287 112.754L29.4287 91.8138L41.4287 91.8138ZM41.4287 61.451L41.4287 82.3909L29.4287 82.3909L29.4287 61.451L41.4287 61.451ZM41.4287 31.0882L41.4287 52.0281L29.4287 52.0281L29.4287 31.0882L41.4287 31.0882ZM41.4287 0.725378L41.4287 21.6652L29.4287 21.6652L29.4287 0.72538L41.4287 0.725378Z" fill="#FFC700"/>
<line x1="29" y1="7" x2="625.079" y2="7.00006" stroke="#FFC700" stroke-width="12" stroke-dasharray="20 9"/>
<path d="M41.4282 103.116L41.4282 97.1165L29.4282 97.1165L29.4282 103.116L41.4282 103.116ZM35.4282 173.127L70.0692 113.127L0.787205 113.127L35.4282 173.127ZM29.4282 103.116L29.4282 119.127L41.4282 119.127L41.4282 103.116L29.4282 103.116Z" fill="#FFC700"/>
</svg>
