<svg width="1440" height="614" viewBox="0 0 1440 614" fill="none" xmlns="http://www.w3.org/2000/svg">
<path d="M2233.93 1643.37C2224.11 1637.01 2219.89 1627.27 2215.79 1617.22L2215.16 1615.66C2212.55 1609.15 2209.99 1602.79 2207.17 1596.36C2204.72 1590.57 2201.6 1586.1 2194.61 1583.63C2187.3 1581.08 2185.88 1576.22 2188.54 1568.76C2193.98 1554.02 2202.27 1542.19 2219.71 1538.04C2222.15 1537.5 2224.35 1534.91 2226.61 1533.5C2232.95 1529.97 2238.01 1523.46 2247.01 1525.62C2248.9 1526.11 2252.82 1522.13 2255.02 1519.53C2260.95 1512.08 2266.26 1504.47 2271.79 1496.74C2273.34 1494.48 2274.89 1492.22 2276.75 1490.04C2282.11 1484.1 2288.25 1480.2 2296.64 1481.7C2299.58 1482.12 2302.87 1481.64 2306.35 1481.54C2306.37 1477.89 2306.58 1474.61 2306.49 1470.76L2316.07 1468.24C2318.17 1461.8 2320.4 1455.05 2322.85 1447.7L2315.12 1451.7C2308.18 1447.74 2302.4 1443.92 2296.17 1440.81C2290.67 1438.06 2287.95 1433.86 2284.96 1428.6C2279.66 1419.41 2282.11 1412.06 2288.07 1404.11C2289.06 1402.87 2289.42 1401.46 2290.54 1399.42C2283.2 1394.7 2282.48 1387.53 2284.01 1379.43C2285.02 1373.3 2284.77 1372.98 2279.17 1365.92L2278.46 1365.02C2280.04 1358.61 2285 1351.9 2279.41 1345.3C2278.6 1344.26 2280.28 1341.2 2281.19 1339.27C2282.57 1336.03 2284.11 1332.71 2285.75 1329.19L2286.53 1327.51L2285.95 1327.08C2280 1322.67 2274.71 1318.74 2272.7 1311.29C2271.29 1305.93 2265.14 1303.51 2258.35 1308.25C2252.7 1299.97 2248 1291.93 2242.33 1284.65C2237.87 1279.17 2234.65 1270.85 2222.91 1274.97C2223.78 1270.87 2224.41 1267.87 2224.92 1265.17C2224.31 1264.52 2223.91 1263.75 2223.5 1263.47C2215.25 1260.68 2206.89 1258.19 2199.08 1255.17C2193.24 1252.83 2187.2 1250.61 2182.14 1247.14C2176.67 1243.4 2171.48 1240.72 2163.34 1241.28C2161.41 1248.61 2153.96 1250.51 2147.61 1254.53C2133.71 1263.42 2122.86 1262.95 2113.2 1251.63C2112.69 1251.17 2111.85 1251.12 2110.91 1250.87C2105.15 1252.88 2104.49 1256.87 2105.82 1261.54C2107.04 1266.01 2107.44 1269.94 2103.19 1274.34C2088.11 1270.94 2075.48 1263.35 2061.48 1255.75C2063.91 1252.55 2066.53 1249.73 2068.21 1246.67C2069.78 1243.91 2070.2 1240.53 2071.15 1237.11C2074.9 1235.42 2079.23 1232.21 2084.01 1237.77C2086.92 1232.37 2089.61 1227.57 2093.2 1220.84C2080.98 1223.51 2070.91 1225.07 2061.8 1219.56C2052.7 1214.04 2050.37 1204.29 2046.33 1195.43C2038.62 1198.93 2031.83 1203.66 2024.94 1204.55C2019.85 1205.23 2014.61 1200.88 2008.99 1198.43C2009.96 1194.52 2010.92 1191.11 2011.76 1188L2011.21 1187.66C2008.23 1185.8 2005.56 1184.15 2002.35 1181.91L1992.05 1187.23C1991.32 1183.72 1990.38 1180.31 1990.01 1178.55C1995.61 1175.17 2000.13 1172.35 2005.62 1168.78C1997.31 1161.64 1991.98 1153.44 1978.34 1154.41C1980.73 1149.04 1982.66 1144.88 1984.7 1140.41C1988.61 1140.09 1991.78 1139.91 1994.96 1139.73C2003 1138.98 2008.28 1135.52 2008.93 1128.37C2010.04 1116.84 2013.65 1106.46 2021.75 1097.4C2023.17 1095.94 2022.93 1093.38 2023.21 1091.29C2023.73 1088.1 2023.63 1084.74 2024.37 1081.44C2026.2 1073.92 2026.51 1074 2022.27 1064.76C2018.64 1066.15 2014.69 1067.46 2011.06 1068.85C2008.13 1077.91 2024.42 1083.12 2012.82 1092.77C2001.72 1093.39 1997.11 1086.05 1992.89 1076.3C1989.54 1081.93 1988.16 1085.56 1988.87 1089.58C1989.68 1093.78 1990.07 1098.2 1990.67 1102.52C1992.07 1111.53 1992.07 1111.53 1980.99 1117.99C1979.07 1109.01 1975.22 1100.53 1975.61 1091.81C1976.03 1082.1 1968.06 1077.21 1965.69 1068.95C1963.42 1060.87 1955.93 1054.28 1951.2 1047.23C1952.91 1036.86 1961.31 1031.54 1969.01 1024.88C1959.5 1015.44 1949.04 1006.24 1954.32 989.639C1948.98 985.099 1943.23 980.285 1937.58 975.664C1934.1 982.087 1931.18 987.49 1927.47 994.519C1930.44 1003.94 1933.89 1014.81 1937.52 1026.56C1935.74 1029.43 1933.51 1033.02 1931.96 1035.28C1936.59 1042.13 1940.83 1048.22 1944.53 1054.33C1945.64 1055.95 1946.72 1058.56 1946.03 1060.38C1943.79 1067.62 1948.07 1072.22 1951.61 1076.96C1956.46 1083.7 1961.52 1090.33 1966.15 1097.19C1967.96 1100.15 1968.9 1103.55 1970.66 1108C1964.58 1109.92 1959.88 1111.87 1954.89 1112.75C1946.09 1114.13 1940.15 1118.42 1937.88 1126.66C1941 1131.12 1944.13 1135.59 1947.36 1140.25C1950.38 1144.53 1949.4 1148.93 1945.7 1152.3C1936.13 1161.15 1936.03 1170.94 1938.02 1181.1C1938.01 1181.6 1937.35 1182.43 1936.9 1183.14C1932.74 1184.56 1931.56 1181.76 1930.7 1179.05C1926.38 1165.95 1922.38 1152.44 1917.63 1139.56C1915.89 1134.62 1913.09 1129.74 1909.53 1125.49C1900.8 1114.92 1898.36 1102.31 1897.52 1089.11C1897.15 1084.19 1896.44 1080.18 1893.19 1076.02L1892.93 1075.66C1889.46 1071.02 1885.77 1066.08 1888.25 1059.1C1888.48 1058.49 1888.52 1057.5 1888.22 1056.93C1883.41 1048.63 1878.5 1040.59 1873.51 1032.42L1872.61 1030.95C1872.71 1030.97 1872.81 1030.99 1872.91 1031.01L1872.6 1030.93L1872.61 1030.95C1867.88 1030.06 1862.94 1029.28 1857.91 1028.3C1856.43 1021.76 1854.84 1015.53 1853.27 1008.8C1858.17 1004.08 1864.01 999.594 1859.41 991.75C1849.83 994.269 1839.51 996.928 1829.93 999.447C1826.97 1006.33 1824.46 1012.01 1822.06 1017.88C1819.66 1023.75 1823.45 1030.55 1829.89 1033.54C1835.71 1036.38 1841.08 1039.93 1847.19 1043.34C1845.86 1048.65 1844.6 1055.15 1842.89 1062.36C1832.62 1061.18 1828.33 1069 1823.91 1077.05L1823.73 1077.38C1821.37 1081.76 1820.41 1088.83 1813.06 1087.77C1806.65 1086.94 1808.87 1080.2 1807.31 1076.13C1805.87 1071.77 1806.13 1067.01 1805.59 1060.71C1801.35 1064.61 1798.09 1067.76 1795.15 1070.5C1792.11 1066.72 1789.92 1062.49 1786.1 1059.84C1779.92 1055.25 1775.1 1057.5 1772.42 1065.46C1770.66 1070.99 1770.66 1070.99 1763.74 1072.87C1763.37 1064.78 1759.62 1056.5 1771.76 1049.98C1767.02 1042.93 1762.49 1036.27 1757.66 1029.04C1744.12 1046.5 1725.49 1045.19 1706.22 1050.53C1705.54 1051.85 1703.53 1055.32 1701.18 1059.71C1687.43 1054.16 1677.28 1045.05 1667.9 1034.81C1663.83 1040.08 1663.9 1044.42 1665.62 1049.86C1668.01 1057.63 1669.42 1066.15 1669.9 1074.42C1670.52 1084.57 1662.45 1092.63 1651.11 1094.36C1645.28 1095.19 1641.4 1097.68 1637.56 1102.35C1633.21 1107.49 1626.52 1111.21 1620.44 1114.59L1620.28 1114.69C1614.8 1117.77 1602.79 1114 1601.69 1108.72C1598.92 1096.53 1588.05 1093.39 1577.59 1090.52C1566.92 1087.76 1560.01 1082.82 1559.2 1071.79C1559.04 1070.42 1558.77 1068.85 1558.6 1067.48C1557.11 1058.28 1553.9 1056.28 1543.58 1058.94C1537.4 1060.68 1531.44 1062.3 1525.27 1064.03C1523.04 1061.29 1521.2 1059.32 1519.48 1057.04C1514.81 1058 1510.56 1058.74 1506.32 1059.47C1503.93 1051.7 1501.53 1044.42 1499.04 1036.46C1505.41 1031.95 1511.26 1027.47 1518.81 1022.1C1516.98 1020.13 1515.09 1016.48 1513.6 1016.76C1507.13 1017.92 1508.27 1012.22 1505.72 1009.4C1495.27 1012.86 1487.81 1008.43 1480.39 1003.02C1476.47 1000.18 1472.93 995.441 1465.51 1000.01C1465.42 996.163 1465.1 992.92 1465.12 989.262C1457.84 985.721 1450.16 981.906 1442.16 978.01C1438.97 985.505 1438.63 995.9 1425.16 998.244C1431.32 1000.17 1437.7 1001.98 1444.39 1003.88C1444.39 1007.04 1444.51 1009.9 1444.41 1012.87C1443.89 1029.2 1443.89 1029.2 1427.15 1034.7C1429.3 1036.75 1431.25 1038.42 1433.91 1040.94C1424.49 1048.49 1419.93 1039.16 1412.55 1039.08C1412.99 1035.2 1413.3 1032.12 1413.83 1028.93C1412.99 1028.88 1412.26 1028.52 1411.83 1028.75C1406.7 1034.08 1400.51 1036.3 1393.57 1035.51C1383.69 1034.29 1375.19 1039.42 1366.23 1042.59C1359.61 1045.04 1356.24 1057.98 1360.62 1062.78C1370.31 1073.1 1382.04 1078.96 1398.45 1073.88C1401.54 1073.01 1405.54 1073.38 1408.46 1074.3C1416.18 1077.12 1423.36 1076.82 1430.94 1070.95C1430.57 1069.19 1430.32 1067.13 1429.69 1063.81C1440.21 1061.53 1450.41 1059.18 1460.91 1057.4C1465.69 1056.63 1471.32 1055.42 1473.75 1061.71C1462.69 1064.51 1451.35 1066.24 1447.36 1078.52C1452.18 1086.25 1461.32 1080.79 1469.14 1083.81C1472.74 1096.55 1480.25 1108.98 1479.65 1124.13C1479.54 1127.6 1480.34 1132.29 1482.6 1134.04C1490.64 1140.11 1487.26 1146.73 1482.92 1153.59C1482.03 1155.03 1480.93 1156.57 1479.38 1158.83C1470.56 1147.57 1465.03 1135.83 1465.21 1120.4C1449.61 1120.2 1435.06 1119.93 1420.39 1119.97C1420.16 1120.58 1420.14 1121.08 1420.01 1121.87C1418.46 1120.97 1416.69 1120.18 1415.68 1118.76C1407.44 1109.14 1397.14 1111.31 1386.11 1116.28C1382.8 1117.75 1379.59 1118.92 1376.39 1120.09C1372.69 1133.45 1377.65 1143.05 1388.07 1150.56C1385.83 1154.64 1384.03 1158.01 1382.23 1161.37C1376.73 1161.78 1372.08 1162.24 1365.84 1162.79C1369.16 1167.13 1371.68 1170.43 1374.2 1173.73L1374.24 1173.78C1365.59 1180.2 1366.08 1187.98 1367.84 1195.59C1362.6 1197.56 1357.8 1199.32 1352.14 1201.52C1355 1194.44 1349.81 1191.76 1345.93 1187.93C1343.78 1185.88 1340.72 1182.59 1341.43 1180.28C1343.14 1173.07 1339.01 1170.34 1334.03 1167.56C1331.44 1166.22 1328.74 1164.69 1325.73 1163.08L1305.13 1173.74C1304.99 1178.19 1304.73 1182.95 1304.37 1187.52C1303.9 1192.39 1301.29 1194.71 1295.6 1194.74C1285.26 1194.73 1275.63 1192.41 1266.8 1187.96C1261.71 1185.49 1257.12 1183.97 1250.37 1187.21C1244.04 1190.24 1239.79 1184.65 1235.56 1181.73C1232.98 1179.9 1231.61 1176.71 1228.57 1172.93C1223.5 1189.43 1218.89 1204.71 1213.84 1220.71L1204.61 1225.48C1205.13 1229.11 1205.76 1232.43 1206.17 1235.87C1198.57 1242.72 1198.57 1242.72 1200.04 1256.08C1197.97 1257.88 1195.9 1260.17 1193.4 1262.19C1190.91 1264.21 1188.22 1265.84 1185.1 1267.7C1178.48 1263.82 1171.83 1260.44 1175.09 1250.97C1175.55 1249.76 1174.87 1247.92 1173.85 1246.99C1164.71 1239.3 1164.45 1227.76 1161.61 1217.54C1158.97 1207.71 1156.43 1198.07 1153.8 1188.23C1153.23 1186.09 1151.93 1184.09 1152.2 1182C1153.59 1168.38 1147.22 1156.59 1145.21 1143.75C1143.83 1134.24 1143.07 1124.9 1139.46 1115.81C1136.91 1109.83 1133.26 1105.39 1125.53 1103.06C1117 1112.34 1104.88 1118.36 1099.28 1131.73C1094.49 1142.97 1082.67 1149.57 1069.62 1151.69C1063.37 1152.73 1058.45 1154.79 1054.07 1159.49L1054 1159.57C1050.85 1162.89 1047.37 1166.57 1041.89 1164.33C1041.26 1164.16 1040.09 1164.53 1039.66 1164.75C1029.12 1174.34 1014.41 1179.03 1005.7 1190.59C1004.6 1192.13 1003.9 1193.95 1002.78 1195.99C1004.4 1198.07 1005.71 1200.07 1007.02 1202.08C1013.06 1211.12 1011.78 1221.28 1002.74 1230.09L1002.4 1230.42C997.292 1235.44 992.403 1240.24 992.768 1248.15L974.528 1257.58C975.886 1261.26 977.805 1263.92 978.123 1267.16C979.155 1274.41 979.873 1281.59 974.166 1288.43C970.109 1293.21 968.578 1298.14 968.685 1304.66C968.891 1311.36 964.523 1319.22 960.517 1325.67C953.148 1338.25 950.568 1349.56 960.87 1360.54C966.475 1366.65 966.371 1376.44 975.18 1381.37C979.94 1384.27 980.26 1390.67 977.228 1396.38C973.42 1403.22 973.412 1410.04 975.302 1416.85C975.584 1417.92 975.322 1419.51 976.049 1419.87C986.18 1426.31 981.419 1436.56 981.445 1445.55C987.429 1449.76 992.781 1450.64 999.596 1445.42C1004.58 1441.38 1011.14 1440.91 1016.21 1443.88C1026.16 1449.45 1036.77 1454.18 1043.42 1463.89C1046.94 1469.12 1050.93 1473.15 1049.75 1480.33C1049.34 1483.22 1052.4 1486.5 1054.41 1489.36C1056.43 1492.21 1059.52 1494.5 1061.76 1497.24C1071.58 1509.93 1065.77 1523.4 1060.56 1537.53C1053.87 1535.64 1050.5 1532.27 1049.65 1525.89L1012.48 1520.29C1007.39 1527.79 1010.48 1533.25 1013.48 1538.52C1022.48 1553.82 1033.97 1567.1 1048.78 1578.92C1062.02 1570.85 1052.64 1557.45 1059.93 1547.35C1064.12 1548.1 1068.32 1548.85 1073.46 1549.85C1074.69 1557.49 1076.56 1564.79 1077.27 1572.46C1079.54 1593.68 1090.47 1611.15 1100.12 1629.28C1102.41 1633.69 1104.79 1638.3 1107.72 1642.39C1111.65 1647.9 1115.36 1654.01 1120.5 1658.17C1127.81 1663.88 1132.01 1670.96 1132.78 1679.81C1134.07 1692.29 1140.07 1702.32 1148.01 1711.36C1149.24 1712.68 1150.23 1714.6 1151.9 1715.19C1161.73 1717.9 1163.55 1726.69 1167.01 1733.91C1169.28 1738.82 1170.16 1744.2 1164.21 1748.99C1160.74 1751.75 1160.1 1755.25 1161.56 1759.12C1162.32 1761.65 1162.23 1764.62 1162.66 1767.56C1148.77 1766.47 1142.59 1761.87 1140.39 1751.32C1137.72 1739.32 1132.53 1730.32 1118.71 1726.76C1113.69 1725.46 1110.38 1720.11 1106.17 1716.7C1100.09 1718.62 1098.26 1722.97 1098.2 1728.12C1098.01 1734.06 1098.35 1739.97 1098.06 1745.72C1097.81 1749.98 1097.34 1754.85 1095.63 1758.9C1092.1 1766.81 1093.27 1773.26 1097.17 1779.76C1105.96 1795.18 1111.64 1811.95 1114.24 1829.59C1114.75 1833.22 1114.43 1836.8 1114.63 1840.34C1114.85 1843.4 1114.41 1847.27 1116.13 1849.55C1119.67 1854.29 1120.78 1859.07 1117.55 1864.39C1118.26 1865.24 1118.66 1866.01 1119.38 1866.36C1129.81 1870.22 1134.74 1877.65 1136.52 1887.93C1138.21 1897.52 1141.18 1906.93 1144.48 1915.94C1146.7 1922.34 1150.21 1928.07 1153.17 1934.32C1154.64 1937.7 1155.9 1941.18 1157.38 1944.56C1152.42 1947.61 1149.88 1947.95 1147.91 1943.61C1146.06 1938.97 1143.24 1934.59 1141.17 1930.06C1138.14 1922.62 1134.11 1916.92 1126.55 1912.31C1120.04 1908.13 1116.41 1899.54 1112.95 1892.32C1109.78 1886.18 1111.2 1877.9 1104.06 1873.56C1102.41 1872.46 1102.52 1869 1102.29 1866.44C1101.69 1862.13 1101.19 1858 1100.59 1853.69C1090.02 1851.13 1076.97 1853.25 1075.3 1839.51C1063.26 1846.71 1061.14 1846.83 1051.26 1839.29C1043.22 1833.22 1035.39 1827.53 1024.32 1827.17C1020.74 1827.08 1017.78 1823.99 1014.34 1822.6C1006.11 1819.31 1000.37 1820.82 992.168 1829.68C992.177 1822.87 992.353 1817.42 992.413 1812.28C999.232 1810.21 997.178 1805.19 997.206 1801.04C997.596 1795.48 997.557 1790.14 997.864 1783.9C996.327 1782.51 994.507 1780.04 992.127 1778.59C986.739 1775.54 984.884 1770.9 984.217 1765.4C984.051 1764.03 983.785 1762.46 983.404 1761.2C979.209 1747.3 975.804 1744.93 959.982 1744.83C961.234 1742 962.585 1739.35 963.952 1736.21C958.152 1732.88 952.879 1729.52 947.277 1726.58C939.493 1722.57 933.442 1717.18 928.496 1710.25C924.361 1704.35 921.512 1697.8 914.241 1694.25C912.473 1693.46 911.611 1690.75 910.932 1688.91C904.338 1670.9 900.701 1652.82 911.134 1633.55C915.287 1625.81 912.455 1618.75 904.854 1615.62C892.875 1610.87 885.648 1602.68 883.305 1590.26C881.86 1582.73 880.843 1574.98 877.681 1568.34C872.366 1556.49 877.756 1546.4 887.361 1539.73C900.315 1530.59 906.166 1519.29 910.809 1506.18C912.899 1500.23 917.088 1494.66 921.261 1489.58C924.989 1485.22 927.032 1480.75 928.677 1475.52C933.515 1459.63 935.067 1444.23 931.135 1428.73C930.091 1425.14 930.036 1420.3 931.931 1417.13C935.723 1410.78 935.37 1405.37 934.306 1399.1C933.341 1393.03 933.962 1386.87 933.74 1380.66L933.74 1380.63C933.813 1371.84 933.885 1363.05 933.743 1354.37C933.538 1347.66 934.472 1341.58 943.52 1339.09C942.158 1332.25 945.373 1327.42 950.091 1321.82C956.672 1314.03 960.658 1304.91 961.192 1294.9C961.352 1289.95 961.61 1285.19 964.941 1280.06C967.925 1275.84 967.902 1270.01 968.805 1264.92C969.906 1260.21 970.694 1255.42 971.696 1250.52C976.484 1249.27 980.529 1248.15 985.218 1246.7C992.865 1232.03 994.516 1216.82 993.854 1201.34C993.688 1199.96 990.978 1198.93 988.713 1197.18C982.629 1205.93 976.89 1213.76 971.465 1221.68C969.255 1224.77 967.244 1228.24 964.621 1231.06C957.842 1238.46 950.251 1244.82 938.951 1241.9C934.871 1240.85 930.643 1241.09 925.175 1240.51C924.209 1247.58 923.274 1253.66 922.654 1259.82C922.327 1263.4 923.257 1267.3 922.088 1270.83C916.376 1287.65 917.204 1304.51 915.918 1321.48C915.285 1331.3 912.737 1341.62 920.294 1349.4L920.172 1349.59C915.887 1356.37 912.221 1362.18 916.27 1369.49C917.958 1372.75 914.81 1378.76 913.693 1383.96C907.832 1385.78 902.185 1387.48 895.796 1389.33C893.861 1387.16 890.655 1385.17 890.52 1382.81C890.227 1372.25 884.173 1363.7 881.635 1354.06C880.507 1349.77 881.624 1344.57 882.924 1340.25C884.8 1334.41 883.772 1330.31 878.599 1327.15C874.689 1324.69 873.401 1320.87 871.922 1316.49L871.781 1316.07C865.188 1298.06 858.61 1279.56 847.84 1263.47C842.91 1256.04 834.518 1254.53 825.637 1258.4C821.675 1260.2 817.415 1261.43 813.37 1262.55C811.026 1263.28 808.085 1262.85 806.567 1264.12C795.528 1272.75 784.736 1267.14 774.231 1265.75C769.506 1265.03 765.784 1259.41 762.542 1255.25C758.688 1250.43 756.122 1244.94 752.698 1239.89L752.602 1239.75C743.286 1225.4 733.97 1211.06 724.555 1196.52C723.645 1195.29 723.28 1193.53 722.139 1192.9C713.215 1188.27 705.396 1182.09 699.211 1174.33C699.012 1173.95 698.599 1173.68 698.285 1173.6C682.065 1172.74 680.398 1158.99 674.805 1149.23C670.204 1141.39 670.634 1141.16 661.28 1136.75C658.049 1142.07 654.604 1147.51 650.828 1153.35L650.804 1153.35C645.396 1151.28 641.337 1149.74 636.965 1148.11C635.332 1149.69 633.599 1151.07 631.867 1152.45C627.571 1151.51 627.123 1149.06 629.233 1145.78C633.668 1139.11 639.446 1136.61 648.088 1140.17C646.134 1135.34 644.759 1132.15 642.888 1128.01C643.218 1127.6 643.465 1126.49 644.339 1125.56C652.883 1115.78 656.389 1105.21 653.502 1093.31C652.488 1089.28 654.282 1084.03 655.784 1079.63L655.848 1079.44C657.709 1074.1 660.511 1069 662.784 1063.93C655.839 1056.81 654.358 1047.11 643.869 1045.24C643.353 1041.61 642.82 1038.48 642.42 1034.55C638.092 1034.59 633.666 1034.45 629.438 1034.69C610.957 1035.24 606.511 1032.43 603.982 1015.97C602.7 1006.65 603.647 996.912 609.632 987.975L609.891 987.593C613.362 982.454 617.116 976.897 623.692 977.297C625.478 964.447 626.818 952.314 629.001 940.232C631.463 926.059 628.774 914.55 616.823 905.64C609.087 900.148 602.556 893.303 591.144 893.85C591.034 884.171 590.777 875.786 591.362 867.451C591.457 864.481 593.353 861.31 595.547 858.715C598.73 854.878 603.054 851.668 607.739 847.055C617.394 855.205 630.423 853.578 642.268 855.971C648.132 857.319 653.059 861.587 658.975 864.612C666.502 860.233 659.89 855.863 659.637 850.64C668.03 838.997 679.398 843.097 689.904 844.479C701.037 846.023 704.036 854.452 708.62 862.79C702.628 865.402 698.567 867.016 694.39 868.932C696.313 874.753 701.018 872.807 704.419 872.021C711.85 870.612 717.385 872.375 721.866 877.359C725.025 880.837 728.497 884.396 732.431 886.742C737.604 889.909 743.587 894.116 749.385 894.282C762.68 894.221 774.592 897.797 786.619 901.069L786.62 901.069C794.153 903.014 794.153 903.014 802.887 900.445C803.969 893.07 807.808 885.243 800.104 878.761C793.254 881.817 786.646 880.61 780.3 877.807C777.491 876.582 773.494 876.215 770.093 877.001C756.602 879.84 746.951 874.852 740.17 865.946C734.91 858.93 728.843 854.036 719.938 852.069C708.721 849.838 702.734 842.468 698.81 833.302C698.23 831.655 697.666 829.512 698.242 827.997C701.009 820.725 699.615 814.874 692.658 811.414C695.075 801.888 702.12 796.054 710.461 795.878C722.814 795.574 735.665 796.231 744.33 805.623C753.094 815.207 763.524 822.227 777.645 822.712C782.219 821.564 787.023 819.809 791.565 819.651C802.762 819.215 805.766 817.661 810.842 807.491C812.638 804.128 814.022 800.492 815.488 797.543C811.75 792.418 808.905 789.021 801.029 791.147C797.199 792.154 791.398 788.826 788.009 785.954C783.893 782.728 780.142 781.261 774.511 782.469C768.667 783.788 762.938 784.804 757.209 785.82L757.206 785.82C754.449 786.273 751.707 786.23 749.081 785.885C745.298 785.407 741.432 784.242 737.534 784.068C725.212 783.382 715.545 778.889 709.654 768.549C706.956 763.859 702.51 761.047 697.222 758.183C691.62 755.239 686.824 750.174 683.086 745.049C678.736 739.267 688.231 722.917 696.603 721.751C703.175 720.786 710.093 718.912 716.474 723.887C720.177 726.84 727.246 726.836 732.96 726.314C743.859 725.302 752.978 727.158 760.567 733.943C764.055 737.007 767.973 739.849 771.56 743.105C776.272 747.483 781.263 749.77 788.761 749.543C793.517 749.274 798.261 752.662 804.308 754.889C802.927 745.381 796.908 739.001 790.773 732.925C786.888 729.093 782.458 725.786 777.483 723.004C768.575 717.875 763.975 710.031 761.421 700.886C760.957 698.936 759.964 697.015 758.903 693.913C747.521 706.614 734.902 705.352 721.718 701.947C714.406 706.215 706.764 710.898 699.238 715.277C689.995 720.544 683.471 720.024 676.065 714.118C663.816 704.632 651.881 695.227 639.516 686.044C636.938 684.213 633.715 682.716 630.56 682.4C616.454 681.42 615 680.711 610.182 669.817C599.183 670.637 587.874 674.538 577.512 668.701C576.371 668.074 572.807 670.647 570.232 671.979C571.995 682.75 581.733 691.588 574.396 703.171C569.822 704.319 565.38 704.669 561.633 706.364C554.452 709.834 548.687 708.678 542.819 704.167C542.616 700.621 542.529 696.772 542.474 691.932C545.034 691.095 547.692 690.451 551.852 689.029C551.877 681.715 551.918 673.905 551.907 664.418C553.525 663.338 557.188 660.957 560.638 658.686C560.57 657.504 560.602 656.514 560.189 656.241C548.965 647.685 548.965 647.685 562.448 638.521C561.272 635.722 560.311 632.812 558.937 629.628C570.39 621.271 582.647 623.938 594.918 622.946C600.009 612.281 609.201 605.337 618.293 598.201C622.831 594.881 627.385 591.065 629.957 586.571C636.749 575.513 647.827 572.218 658.973 570.104C669.062 568.051 679.318 567.372 688.425 572.885C695.251 577.143 701.794 580.331 711.963 575.802C717.741 573.301 726.117 575.297 732.494 577.11C747.231 581.415 761.734 583.164 777.22 577.346C781.281 575.732 785.724 575.382 789.884 573.961C809.002 566.751 825.308 571.462 840.414 580.687C847.141 584.753 853.454 588.547 862.586 586.745C867.044 585.9 871.506 588.217 876.131 588.746C881.384 589.437 886.851 590.017 892.104 590.708C895.259 591.023 898.661 590.238 901.37 591.27C918.67 597.901 936.071 591.579 953.193 587.349C957.553 586.311 959.134 583.059 959.032 579.705C959.159 575.744 958.445 571.733 957.615 568.024C956.669 564.619 954.667 561.273 959.404 558.337C960.262 557.893 961.268 556.156 960.97 555.58C958.118 545.858 958.271 534.583 947.956 527.261C943.883 532.532 936.619 535.315 940.261 543.41C943.794 541.827 947.013 540.162 952.791 537.661C951.212 544.075 949.896 548.893 948.795 553.601C947.956 556.712 947.217 560.015 945.786 565.136C944.085 565.529 940.584 566.122 937.084 566.716C934.012 567.087 930.857 566.772 927.869 567.831C917.748 570.874 909.686 568.959 902.296 562.558C897.37 558.29 891.684 554.659 885.636 552.432C880.217 550.367 876.613 547.606 874.476 541.896C878.569 539.293 882.877 536.578 888.043 533.42C886.764 527.266 885.502 520.617 884.04 513.584C891.595 505.052 900.508 500.199 912.83 500.886C912.536 503.472 912.027 506.169 911.716 509.25C913.6 509.737 915.253 510.829 917.152 510.82C921.594 510.47 927.801 507.747 930.38 509.577C934.512 512.308 938.692 513.554 943.035 513.012C948.963 512.38 954.94 510.263 961.33 508.418C961.596 509.985 961.929 512.733 962.298 517.653C969.177 510.445 976.191 505.601 979.355 499.097C981.958 493.613 980.397 486.388 979.762 479.901C979.544 476.85 976.998 474.029 975.707 471.532C986.207 453.446 979.251 436.841 957.307 427.014C957.607 414.446 958.727 412.406 969.111 407.766C981.635 411.999 975.124 424.128 978.521 433.324C996.656 433.681 1012.55 438.118 1017.15 459.106C1023.36 462.708 1030.49 467.542 1031.54 477.464C1032.12 482.274 1038.83 483.673 1045.17 480.152C1053.22 475.743 1061.03 475.597 1069.14 476.028C1073.5 488.134 1073.27 491.903 1067.34 499.355C1074.94 502.482 1083.2 504.782 1085.98 513.321C1086.56 514.968 1090.46 515.143 1092.64 516.205C1102.62 504.473 1105.51 503.222 1122.42 502.265C1126.85 508.734 1129.92 515.183 1134.93 520.137C1139.94 525.091 1142.62 530.276 1141.14 536.882C1141.14 565.72 1142.73 577.308 1147.59 580.393C1134.39 590.628 1137.5 567.906 1120.3 548.323C1114.68 541.923 1105.35 540.786 1099.67 540.317C1088.93 539.541 1081.02 533.17 1070.69 532.667C1060.16 532.275 1051.3 528.824 1043.25 523.251C1040.67 521.42 1037.56 519.619 1034.31 519.112C1024.23 517.508 1018.3 511.815 1014.34 503.639C1012.37 499.303 1010.27 495.766 1003.84 495.437C1000.79 495.314 998.373 491.695 996.009 489.754C999.721 485.887 1003.7 483.586 1004.75 480.364C1005.79 477.637 1003.79 474.291 1002.83 471.381C1000.89 466.055 998.52 460.951 996.367 455.736C987.14 460.508 986.925 460.619 987.612 468.783C988.5 480.493 989.603 492.093 990.178 503.722C990.495 506.965 989.541 510.379 989.132 513.269C978.966 520.96 977.257 528.172 982.636 538.047C984.125 540.927 984.741 544.747 984.414 548.323C982.918 568.569 991.464 575.102 1012.02 569.096C1014.19 570.653 1016.66 572.292 1018.83 573.849L1019.53 573.595C1033.7 568.414 1047.78 563.271 1061.31 571.84C1072.58 578.911 1089.84 580.207 1090.54 597.858C1091.26 598.212 1091.66 598.98 1092.5 599.031C1108.87 598.599 1119.15 606.911 1128.3 617.759C1134.5 625.018 1140.19 631.811 1140.28 641.985C1140.4 644.845 1142.52 647.887 1144.77 650.132C1148.85 654.348 1175.69 702.671 1180.93 707.02C1182.58 704.95 1183.58 703.213 1184.9 701.557C1188.98 696.286 1194.31 694.502 1200.47 696.426C1206.64 698.35 1212.47 700.688 1216.33 701.853C1225.82 695.485 1233.6 690.005 1241.67 685.101C1244.57 683.355 1248.26 683.641 1251.46 682.471C1262.24 678.6 1273.25 677.284 1284.47 676.353C1286.27 676.152 1288.3 675.346 1290.01 674.458C1298.51 669.332 1306.06 667.62 1312.43 676.253C1314.05 678.335 1318.48 678.48 1322.54 680.029C1323.44 684.92 1327.75 688.53 1332.79 692.494C1337.42 696.185 1339.2 703.299 1341.96 709.171C1343.55 712.243 1344.61 715.346 1345.59 717.761C1353.94 713.928 1361.52 711.226 1368.09 707.099C1377.13 701.448 1386 694.918 1388.77 683.988C1390.11 678.675 1386.58 673.439 1381.68 675.001C1374.33 677.097 1370.97 673.235 1365.8 670.069C1367.2 665.938 1368.72 661.504 1370.23 657.07C1361.36 654.113 1353.18 649.338 1344.33 658.536C1336.62 655.711 1328.56 653.795 1328.16 643.045L1313.57 650.592C1299.29 658.219 1297.61 658.117 1284.55 650.752C1282.72 651.942 1280.58 653.052 1278.74 654.243C1267.56 651.022 1267.56 651.022 1262.16 654.786C1259.63 651.471 1257 647.963 1253.86 643.99C1252.52 646.141 1251.93 648.151 1250.41 649.423C1242.71 656.085 1236.2 655.07 1231.93 646.812C1230.64 644.316 1229.25 641.628 1229.13 638.768C1228.51 631.787 1225.3 626.631 1219.84 622.394C1218.19 621.302 1215.84 618.865 1216.3 617.653C1218.89 609.502 1212.23 606.617 1208.15 602.401C1204.26 598.569 1200.04 595.151 1201.64 588.242C1195.54 587.5 1189.98 586.728 1184.51 586.148C1184.52 585.653 1184.44 584.966 1184.46 584.471C1186.27 583.775 1188.2 582.776 1190 582.575C1192.33 582.345 1194.75 582.801 1196.97 582.378C1209.71 580.175 1218.23 584.041 1225.2 593.826C1231.55 602.954 1239.95 610.78 1248.36 618.112C1252.46 621.833 1258.51 624.06 1263.82 626.428C1268.81 628.715 1274.34 630.477 1279.55 632.653C1285.06 634.91 1290.43 635.298 1297.41 631.444C1298.07 627.454 1298.64 622.776 1299.65 617.877C1301.45 607.695 1302.64 606.837 1313.04 604.864C1316.97 604.049 1320.79 603.536 1324.82 602.913C1331.92 601.918 1338.83 600.044 1343.88 594.026C1346.73 590.604 1350.47 589.404 1355.42 589.519C1362.59 589.706 1369.79 588.903 1376.47 584.473C1379.16 582.838 1383.18 582.71 1386.66 582.612C1391.83 582.615 1395.68 581.113 1399.39 577.246C1405.49 571.169 1407.24 572.211 1414.42 565.579C1421.13 556.419 1436.99 542.473 1432.73 536.882C1421.17 545.542 1405.95 537.325 1394.57 536.882C1387.93 536.665 1377.84 523.263 1376.47 516.423C1374.05 493.577 1353.34 488.094 1345.34 488.486C1332.34 489.123 1320.29 488.019 1308.61 486.117C1298.23 481.586 1288.01 473.146 1279.55 473.146C1271.08 473.146 1271.47 477.028 1268.27 481.36C1260.98 481.475 1257.84 477.503 1256.46 471.157C1254.74 462.558 1253.32 454.04 1262.23 446.024C1259.15 440.071 1256.52 433.401 1252.38 427.508C1245.44 417.228 1244.2 406.427 1248.4 394.033C1249.11 391.72 1249.09 389.053 1248.21 386.829C1245.99 380.432 1243.24 374.065 1240.61 367.395C1242.9 364.992 1244.46 362.235 1247.25 360.793C1251.33 358.684 1255.58 357.95 1258.49 362.529C1260.49 365.874 1263.35 368.776 1264.92 372.344C1267.56 379.014 1273.41 380.857 1279.9 382.367C1285.45 383.634 1288.7 380.98 1289.72 375.585C1289.96 374.484 1289.68 373.413 1289.93 372.312C1291.06 366.615 1293.64 365.283 1298.84 367.459C1300.51 368.056 1301.95 369.26 1304.33 370.706C1306.84 368.192 1309.44 365.871 1311.74 363.468C1318.81 356.644 1324.64 355.819 1332.64 359.715C1339.19 362.902 1344.39 368.241 1352.93 368.449C1355.99 368.573 1358.6 372.576 1361.59 374.679C1354.67 383.373 1354.67 383.373 1342.29 381.01C1335.63 384.945 1339.91 389.545 1340.51 393.86C1341.09 398.669 1344.84 400.137 1349.6 399.868C1366.68 383.978 1372.54 382.164 1382.72 390.284C1379.65 390.656 1377.2 391.19 1374.35 391.45C1374.02 395.026 1373.69 398.603 1373.45 402.866C1376.95 403.769 1380.26 404.767 1383.81 405.838L1384.64 406.087C1384.99 401.521 1385.11 398.055 1385.23 394.095C1391.86 394.807 1398.17 395.439 1404.79 396.151C1404.51 385.098 1403.25 375.287 1398.8 366.15C1396.13 360.47 1395.18 353.902 1393.59 347.667C1392.1 341.624 1394.44 337.736 1401.54 336.742C1401.37 332.205 1400.77 327.891 1401.42 323.9C1401.57 322.607 1406.03 321.762 1409.23 320.592C1407.72 315.045 1405.19 311.729 1397.68 312.451C1392.71 312.831 1387.62 310.352 1382.38 309.166C1376.01 313.677 1378.83 324.389 1368 326.583C1362.76 322.235 1357.2 317.805 1351.43 313.487C1349.58 312.01 1347.3 310.756 1344.77 310.602C1331.31 309.289 1325.87 304.557 1324.47 292.381C1324.4 291.199 1323.91 290.239 1323.54 288.481C1320.07 288.084 1316.19 287.415 1312.41 286.937C1303.47 285.96 1298.81 283.259 1298.76 278.42C1298.72 273.085 1301.74 271.036 1312.29 267.771C1337.86 259.9 1363.99 257.828 1389.74 257.655C1401.66 257.573 1412.05 256.096 1421.82 247.637C1425.21 250.508 1428.18 253.107 1431.16 255.706C1436.34 255.215 1441.76 254.118 1447.14 254.01C1454.96 253.865 1461.87 251.991 1468.74 248.44C1473.25 246.109 1478.56 244.82 1483.65 244.137C1494.78 242.518 1505.56 238.647 1517.17 241.646C1525.12 243.865 1530.3 240.211 1533.9 233.485C1534.69 231.859 1534.77 229.384 1534.4 227.626C1533.19 222.654 1533.93 219.351 1540.3 218.002C1542.53 217.579 1544.89 216.358 1546.84 214.865C1557.9 205.74 1568.68 208.193 1579.51 212.818C1581.9 213.769 1584.51 214.61 1587.64 215.916C1593.87 209.04 1600.84 208.843 1608.08 213.375C1610.36 214.629 1613.63 214.642 1617.08 215.533C1618.96 206.533 1613.85 201.387 1610.01 196.07C1609 194.644 1604.34 195.105 1601.27 195.477C1586.97 197.275 1583.43 195.696 1577.39 183.487C1574.32 183.858 1570.82 184.452 1567.65 184.631C1564.48 184.811 1561.19 185.293 1558.48 184.261C1552.14 181.457 1546.2 178.927 1538.58 183.114C1537.51 183.669 1535.09 183.213 1534.17 182.474C1527.69 177.307 1520.44 179.595 1512.99 181.499C1506.41 182.958 1499.72 184.226 1492.29 185.634L1492.29 185.636C1484.54 173.819 1475.61 162.861 1481.28 147.518C1485.35 142.247 1489.42 136.977 1494.27 130.575C1497.79 129.486 1504.03 128.935 1508.77 125.999C1514.91 122.093 1512.04 116.029 1511.06 110.452C1521.17 104.741 1529.96 97.0286 1541.55 97.3606C1549.47 97.4069 1551.8 90.3567 1558.77 86.9976C1548.91 85.2828 1541.52 82.0442 1535.72 75.5536C1531.95 71.4186 1522.15 74.0482 1518.59 79.7842C1515.03 85.5201 1511.21 89.6898 1503.64 88.7345C1502.17 88.5212 1500.55 89.601 1499.27 90.2668C1471.96 102.683 1444.39 100.389 1417.62 99.6319C1409.05 84.107 1410.86 83.4112 1394.86 95.5836C1385.12 103.053 1380.41 101.837 1374.8 92.5679C1369.28 83.9862 1370.64 74.5207 1370.64 64.5387C1384.77 55.0422 1397.8 43.4333 1415.34 39.4759C1418.21 38.7203 1421.58 35.7626 1423.24 33.1977C1426.13 28.7847 1427.66 23.8554 1430.39 17.5732C1423.33 17.578 1417.53 17.4122 1411.71 17.7412C1406.64 17.9294 1403.11 16.3506 1402.41 11.8441C1401.34 5.57935 1397.52 -0.232983 1391.5 0.207061C1383.35 0.766749 1373.96 1.00236 1367.49 8.48396C1365.84 10.5538 1363.88 12.5426 1361.26 15.3594C1357.3 10.3453 1353.15 8.1094 1345.79 10.7004C1340.67 12.3737 1334.18 10.8635 1328.74 9.29343C1322.68 7.56126 1317.6 8.24441 1312 11.6248C1308.67 13.5924 1304.92 15.287 1301.07 16.7895C1291.03 20.5201 1284.17 27.2335 1283.13 36.7802C1281.08 57.5509 1265.19 66.2581 1244.81 66.8187C1234.67 67.195 1224.4 68.3694 1214.27 68.2507C1193.71 67.9321 1177.05 57.8064 1159.34 50.9028C1153.5 48.5646 1150.61 43.4906 1151.87 36.9952C1144.38 40.3842 1137.53 43.4403 1130.68 46.4965C1122.75 50.1074 1115.83 48.8193 1109.63 44.7228C1101.05 39.1799 1092.92 32.9199 1083.53 26.3357C1077.36 31.2311 1071.08 36.4296 1064.03 42.2639C1071.3 48.9678 1067.79 56.3809 1065.43 64.4213C1058.66 87.6333 1040.78 102.482 1021.75 116.703C1020.56 117.561 1019.16 118.53 1017.87 119.195C1026.29 129.689 1037.89 136.345 1048.07 144.466C1056.72 151.191 1057.74 162.103 1051.19 172.06C1047.09 178.321 1043.2 184.471 1038.37 190.377C1029.9 200.838 1029.78 211.123 1034.09 221.553C1035.85 225.999 1037.6 230.446 1040.33 234.146C1043.26 238.23 1046.78 243.466 1051.29 244.298C1062.19 246.448 1071.09 252.072 1080.89 255.767C1091.72 259.897 1102.55 264.522 1108.22 274.973C1110.61 279.582 1113.14 282.898 1119.65 283.913C1127.31 285.061 1131.55 291.146 1133.87 297.735C1135.79 303.556 1140 306.974 1145.18 310.14C1153.04 314.834 1160.02 320.961 1168 325.352C1175.47 329.278 1183.83 331.769 1191.96 334.867C1200.31 337.854 1209.19 340.316 1217.64 343.494C1223.06 345.559 1224.8 350.501 1225.36 355.806C1225.85 360.423 1226.22 365.344 1218.08 369.066C1211.77 365.272 1204.51 361.236 1196.74 356.734C1193.13 363.955 1195.29 372.332 1193.67 380.232C1211.15 390.904 1214.22 406.839 1210.32 426.628C1207.38 426.201 1205.28 425.826 1201.08 425.075C1201.05 426.065 1201.53 427.52 1201.27 429.116C1201.12 430.41 1200.23 431.844 1198.96 435.177C1195.12 429.86 1192.08 426.079 1189.25 422.187C1186.18 422.558 1182.27 422.879 1177.4 423.451C1178.6 418.936 1179.63 416.209 1180.7 412.491C1172.49 408.707 1161.46 407.355 1160.9 395.231C1162.6 394.838 1164.2 394.253 1166.64 393.719L1161.98 384.694C1158.36 385.59 1154.64 386.295 1150.5 387.221C1145.01 380.811 1147.62 368.508 1135.02 366.75C1133.05 368.739 1130.56 370.758 1127.3 373.908C1122.24 370.441 1116.88 366.894 1111.92 363.619L1111.91 363.611C1105.32 365.071 1099.36 366.693 1092.77 368.154C1094.45 361.931 1095.55 357.224 1097.01 351.113C1104.25 349.32 1106.35 342.875 1106.51 334.763C1101.04 334.183 1096.36 331.977 1090.49 337.448C1088.53 339.437 1082.12 338.614 1078.14 337.752C1071.74 336.434 1065.91 334.096 1061 332.496C1062.82 328.638 1064.51 325.083 1066.1 321.831C1065.57 321.861 1064.72 321.809 1064.2 321.839C1068.83 318.711 1073.36 315.885 1078.42 312.535C1069.66 306.113 1072.95 292.486 1059.9 291.446C1060.13 287.677 1060.77 284.182 1060.55 281.131C1060.3 275.907 1057.68 271.904 1052.23 270.829C1041.64 268.76 1035.19 262.603 1029.54 254.819L1029.53 254.816C1027.81 252.542 1026.09 250.269 1024.16 248.106C1021 244.629 1020.29 240.617 1021.92 235.88C1022.84 233.456 1023.45 230.951 1024.29 227.84C1021.08 225.847 1017.97 224.046 1015.39 222.216C1011.77 213.625 1019.72 209.024 1024.36 202.733C1021.98 201.287 1019.91 199.921 1018.06 198.445C1010.03 192.377 1005.41 185.028 1006.17 174.411C1006.84 166.763 1006.14 159.094 1005.88 150.708C1000.53 152.988 996.259 154.712 992.197 156.326C987.751 153.513 983.834 150.672 979.686 148.436C972.729 144.975 965.787 141.02 957.057 146.752C955.44 147.832 952.003 146.445 948.912 144.149C955.862 141.285 962.713 138.229 970.735 134.81C969.568 125.191 971.755 116.271 977.013 106.98C980.26 101.163 976.093 96.2602 971.877 92.8421C969.513 90.9006 965.961 89.8169 962.524 88.4301C960.247 90.3379 958.085 91.9427 956.023 93.7396C948.647 99.9879 940.707 104.094 931.044 102.763C925.163 101.91 919.334 102.734 913.743 109.277C913.703 103.942 913.815 100.477 913.728 96.6277C908.789 96.0178 904.446 96.5601 900.321 100.154C891.213 107.785 880.878 110.939 869.398 110.304C862.978 99.9944 855.461 97.5539 842.88 101.626C838.406 102.967 833.816 104.61 829.127 106.061C821.407 100.074 827.492 91.3297 825.502 84.3267C811.591 80.568 802.777 85.613 799.259 99.8457C793.004 104.054 782.162 96.7616 778.723 108.519C786.372 110.162 785.943 110.383 789.665 116.004C794.496 123.241 798.154 130.841 797.752 140.055C797.397 147.784 804.005 148.991 809.969 150.531C813.637 151.312 817.535 151.487 822.374 151.904C821.023 154.55 820.002 156.782 818.964 159.51C822.88 162.35 827.011 165.08 832.379 168.629L832.385 168.633C828.34 169.751 825.781 170.588 823.337 171.121C817.178 172.36 811.862 173.649 806.731 178.979C800.726 185.249 792.514 181.464 785.806 180.065C780.355 178.99 779.012 174.816 780.575 168.897C782.646 160.281 779.007 155.348 770.945 153.432C760.372 150.868 760.173 150.484 759.912 138.936C754.759 138.437 749.391 138.049 743.609 137.388C745.04 132.267 744.556 127.649 752.134 124.947C755.551 123.667 757.444 117.333 760.345 112.425C766.706 114.734 772.126 116.799 778.487 119.107C776.251 113.205 774.197 108.182 771.961 102.28C766.577 102.387 760.152 102.059 753.535 107.672C750.714 110.104 743.017 109.947 739.167 108.287C727.616 103.308 715.474 100.339 702.64 99.1874C701.483 99.0552 700.442 98.6199 699.401 98.1847C684.168 92.9196 684.167 92.9198 667.84 98.6865C665.853 94.8458 663.883 90.5101 661.583 86.5884C655.096 75.0962 648.321 72.5147 634.088 75.4946C630.372 76.199 626.474 76.0244 622.576 75.8497C616.994 75.5728 611.526 74.9928 604.688 74.3916C605.073 78.8171 605.207 81.1813 605.624 84.6167C601.114 83.7848 597.447 83.0042 593.152 82.0614C592.742 84.9506 592.348 87.3448 591.74 89.8499C582.275 88.9032 575.104 85.5537 572.812 74.8123C566.369 81.7911 561.128 87.4202 555.017 93.9834L554.996 94.0051C542.552 87.2974 527.7 83.2955 521.026 67.7619C511.652 73.8269 503.136 79.448 494.62 85.0691C493.647 85.816 492.987 86.644 492.013 87.3909C479.916 96.2995 479.705 96.1945 467.589 90.1518L467.242 89.9789C464.961 88.7244 462.566 87.7729 461.525 87.3377C452.179 89.2503 444.303 91.3762 436.145 92.4309C428.202 93.3747 421.594 92.1674 415.345 86.3938C410.12 81.5505 401.2 80.0789 393.682 77.6383C389.403 76.2005 384.679 75.4796 382.824 70.8409C382.625 70.4568 382.526 70.2648 382.112 69.9917C359.655 59.6999 341.022 42.0761 312.846 42.2874C311.26 42.3771 309.492 41.5878 308.205 42.2536C296.816 48.6303 285.977 44.5 275.01 44.3302C270.712 53.363 271.023 53.4502 278.327 55.5025L278.342 55.5068C287.644 58.2416 296.676 56.2479 306.797 53.2044C307.182 57.6298 307.582 61.5603 307.685 64.9146C300.242 69.9808 293.228 74.8251 286.131 78.9823C284.085 80.2841 280.815 80.2715 278.403 79.8151C273.48 78.7101 269.002 76.8882 263.88 75.3992C260.319 81.1351 258.542 87.1654 249.475 86.9869C247.671 84.0253 245.256 80.4065 242.443 76.0196C233.113 77.4372 222.198 78.9445 210.325 80.7037C207.542 88.4709 200.397 94.1132 192.839 99.4824C183.019 106.264 173.696 114.007 164.175 121.365C157.574 126.482 151.8 132.146 150.043 140.843C148.762 147.834 146.005 148.286 137.895 147.856C135.153 147.813 131.752 148.599 129.391 149.819C121.98 153.896 115.264 159.316 107.67 162.513C99.6475 165.932 94.2191 170.686 90.197 177.634C88.4165 180.502 86.5207 183.673 84.327 186.268C75.0911 197.86 62.193 198.689 52.9321 188.144C40.6139 190.62 29.6188 194.603 24.8607 208.016C23.5768 211.844 20.6081 215.57 17.9693 218.882C9.72292 229.232 3.44857 230.773 -8.20107 225.601C-14.3566 230.002 -10.0418 233.612 -8.03961 236.957C-4.73037 242.304 -4.06351 247.801 -7.83909 253.648C-9.6196 256.516 -12.8543 258.676 -15.6918 261.603C-17.6106 258.945 -18.6197 257.52 -19.6288 256.094C-20.3719 256.235 -21.4288 256.295 -22.0726 256.628C-29.301 261.583 -37.5386 265.113 -42.5502 273.303C-46.8862 280.17 -59.2718 281.464 -66.972 278.144C-74.7716 274.633 -82.5711 271.121 -89.7429 267.772C-89.8138 263.427 -90.1153 259.689 -89.8883 255.92C-89.4982 250.364 -94.8823 250.471 -97.9734 248.175C-105.773 244.664 -114.236 238.818 -122.929 233.578C-126.35 231.696 -592.313 562.001 -399.26 452.425C-132.109 968.999 296.18 1517.61 563.332 2034.18C569.36 2033.74 597.83 1877.05 631.507 1820.93C637.04 1806.39 688.566 1753.28 701.202 1754.05C713.623 1754.92 726.152 1749.18 738.478 1753.02C740.461 1753.7 743.993 1752.12 746.155 1750.51C751.122 1746.97 755.863 1747.2 760.786 1748.3C768.649 1749.83 776.743 1750.76 784.59 1752.79C792.223 1754.92 800.615 1756.42 806.813 1760.52C834.629 1778.02 863.666 1793.67 888.183 1815.31C889.208 1816.24 890.531 1817.75 891.688 1817.88C901.895 1818.69 905.753 1826.67 911.589 1832.17C917.426 1837.67 922.833 1843.39 928.999 1848.48L929.646 1849.02C934.235 1852.89 938.55 1856.52 940.576 1862.45C942.018 1866.82 945.192 1869.8 951.979 1868.72C955.524 1863.48 959.613 1857.72 963.488 1852.06C965.714 1848.48 968.273 1847.64 972.207 1849.99C958.496 1862.92 955.177 1877.54 962.526 1891.75C968.187 1902.69 976.522 1912.5 985.187 1921.89C993.752 1931.09 1004.48 1938.69 1009.15 1950.87C1009.65 1951.83 1010.57 1952.57 1011.28 1953.42C1020.61 1965.15 1030.58 1976.54 1039.37 1988.79C1047.24 1999.81 1054.46 2011.66 1060.71 2023.76C1066.57 2035.09 1072.53 2046.61 1065 2060.97C1061.41 2067.7 1065.03 2076.29 1072.07 2080.43C1086.45 2089.31 1098.01 2100.61 1107.18 2114.12C1112.12 2121.06 1117.93 2127.55 1125.79 2132.24C1130.14 2134.86 1133.93 2138.5 1137.07 2142.48C1150.38 2158.23 1161.22 2175.5 1167.44 2195.41C1523.02 2011.03 1878.37 1827.26 2233.93 1643.37Z" fill="white"/>
</svg>
