<svg width="331" height="148" viewBox="0 0 331 148" fill="none" xmlns="http://www.w3.org/2000/svg">
<path d="M-89.2559 100.798C-89.2559 100.798 -64.562 52.3905 -2.7038 52.3905C64.6285 52.3905 73.8161 100.798 119.585 100.798C165.353 100.798 177.397 52.3905 239.802 52.3905C302.208 52.3905 325.648 100.798 325.648 100.798" stroke="#FFC700" stroke-width="11"/>
<path d="M-2.7041 6.45691C64.6282 6.45691 73.8159 54.8644 119.584 54.8644C165.353 54.8644 177.396 6.45691 239.802 6.45691C302.207 6.45691 325.648 54.8644 325.648 54.8644" stroke="#FFC700" stroke-width="11"/>
<path d="M105.063 142.486C59.2949 142.486 47.2517 94.0785 -15.1539 94.0785C-77.5595 94.0785 -101 142.486 -101 142.486" stroke="#FFC700" stroke-width="11"/>
</svg>
